<?xml version="1.0" encoding="utf-8"?>
<!-- Generator: Adobe Illustrator 16.0.4, SVG Export Plug-In . SVG Version: 6.00 Build 0)  -->
<!DOCTYPE svg PUBLIC "-//W3C//DTD SVG 1.1//EN" "http://www.w3.org/Graphics/SVG/1.1/DTD/svg11.dtd">
<svg version="1.1" xmlns="http://www.w3.org/2000/svg" xmlns:xlink="http://www.w3.org/1999/xlink" x="0px" y="0px" width="792px"
	 height="612px" viewBox="0 0 792 612" enable-background="new 0 0 792 612" xml:space="preserve">
<g id="Layer_1">
	<g>
		<path d="M566.999,338.852c2.894,0,5.238,2.34,5.238,5.232c0,2.888-2.345,5.23-5.238,5.23s-5.239-2.343-5.239-5.23
			C561.76,341.191,564.105,338.852,566.999,338.852z"/>
		<path d="M518.886,399.027c1.071-0.134,2.011-0.996,2.237-2.052c1.795-12.335,5.121-24.746,5.28-37.197H526.4
			c0-14.126-9.079-20.927-17.023-20.927c-11.736,0.039-19.489,10.309-19.644,20.927c0,9.488,1.803,18.722,2.659,27.714
			c0.111,1.018,0.87,1.938,1.851,2.229c0.981,0.297,2.124-0.049,2.775-0.839l2.947-3.679l4.582,7.359
			c0.929,1.486,3.466,1.509,4.42,0.04l2.701-4.046l4.542,9.031C516.69,398.557,517.814,399.16,518.886,399.027z M509.828,381.852
			l-2.988,4.455l-4.379-6.99c-0.879-1.434-3.259-1.57-4.296-0.243l-1.31,1.635c-0.877-7.112-1.884-14.114-1.884-20.93
			c0.051-7.95,5.419-15.719,14.405-15.698c5.151,0,11.787,3.663,11.787,15.698c0,4.727-1.794,17.37-3.807,28.327l-2.986-5.969
			C513.563,380.488,510.837,380.316,509.828,381.852z"/>
		<path d="M535.281,422.646c-6.237-11.834-4.119-17.51-0.901-25.059c2.426-5.689,5.632-12.311,5.893-21.663
			c2.137,2.337,4.417,4.138,6.835,5.436c4.762,2.563,9.819,3.272,14.65,3.272c18.361-0.113,30.18-14.52,30.12-31.393h0.003
			c0-13.749-9.486-26.345-23.245-27.306c-4.938-7.594-1.637-10.911-1.637-17.168c-0.002-1.22-0.969-2.368-2.171-2.576
			c-9.366-1.559-21.799,6.428-21.321,24.608l-3.764,2.208c-7.491-6.378-16.879-15.084-30.366-15.084
			c-7.072,0-14.229,2.116-19.85,6.825s-9.534,11.998-10.232,21.746c-0.084,13.121-0.039,26.304-0.039,39.445
			c0,10.915,6.82,21.035,16.778,28.409c9.961,7.376,23.207,12.14,36.912,12.14C534.75,426.503,536.125,424.238,535.281,422.646z
			 M548.623,330.878c-0.561-14.024,6.906-18.89,12.768-19.335c-0.644,3.527-1.922,8.277,1.228,14.635
			c-4.666,0.83-8.781,2.909-12.645,5.601L548.623,330.878z M499.189,410.181c-9.03-6.687-14.692-15.534-14.692-24.239v-39.037
			c0.61-8.565,3.902-14.356,8.43-18.149c4.529-3.794,10.428-5.599,16.453-5.599c11.874,0,20.429,8.414,28.44,15.082
			c0.827,0.695,2.101,0.797,3.029,0.246l5.154-3.066l2.538,1.677c0.896,0.599,2.167,0.563,3.028-0.083
			c4.883-3.443,9.542-6.116,15.429-6.007c11.522,0,19.643,10.374,19.643,22.235c-0.154,14.162-10.456,25.969-24.882,26.16
			c-4.333,0-8.405-0.602-12.154-2.617s-7.267-5.484-10.354-11.649c-0.517-1.179-1.997-1.836-3.221-1.433
			c-1.223,0.404-2.018,1.814-1.73,3.068c2.499,13.725-1.375,20.957-4.706,28.777c-2.947,6.918-4.836,14.711-0.571,25.385
			C517.932,420.117,507.258,416.158,499.189,410.181z"/>
		<path d="M566.999,338.852c2.894,0,5.238,2.34,5.238,5.232c0,2.888-2.345,5.23-5.238,5.23s-5.239-2.343-5.239-5.23
			C561.76,341.191,564.105,338.852,566.999,338.852z"/>
		<path d="M518.886,399.027c1.071-0.134,2.011-0.996,2.237-2.052c1.795-12.335,5.121-24.746,5.28-37.197H526.4
			c0-14.126-9.079-20.927-17.023-20.927c-11.736,0.039-19.489,10.309-19.644,20.927c0,9.488,1.803,18.722,2.659,27.714
			c0.111,1.018,0.87,1.938,1.851,2.229c0.981,0.297,2.124-0.049,2.775-0.839l2.947-3.679l4.582,7.359
			c0.929,1.486,3.466,1.509,4.42,0.04l2.701-4.046l4.542,9.031C516.69,398.557,517.814,399.16,518.886,399.027z M509.828,381.852
			l-2.988,4.455l-4.379-6.99c-0.879-1.434-3.259-1.57-4.296-0.243l-1.31,1.635c-0.877-7.112-1.884-14.114-1.884-20.93
			c0.051-7.95,5.419-15.719,14.405-15.698c5.151,0,11.787,3.663,11.787,15.698c0,4.727-1.794,17.37-3.807,28.327l-2.986-5.969
			C513.563,380.488,510.837,380.316,509.828,381.852z"/>
		<path d="M566.999,349.314c-2.894,0-5.239-2.343-5.239-5.23c0-2.893,2.346-5.232,5.239-5.232s5.238,2.34,5.238,5.232
			C572.237,346.972,569.893,349.314,566.999,349.314z"/>
		<path d="M518.886,399.027c1.071-0.134,2.011-0.996,2.237-2.052c1.795-12.335,5.121-24.746,5.28-37.197H526.4
			c0-14.126-9.079-20.927-17.023-20.927c-11.736,0.039-19.489,10.309-19.644,20.927c0,9.488,1.803,18.722,2.659,27.714
			c0.111,1.018,0.87,1.938,1.851,2.229c0.981,0.297,2.124-0.049,2.775-0.839l2.947-3.679l4.582,7.359
			c0.929,1.486,3.466,1.509,4.42,0.04l2.701-4.046l4.542,9.031C516.69,398.557,517.814,399.16,518.886,399.027z M509.828,381.852
			l-2.988,4.455l-4.379-6.99c-0.879-1.434-3.259-1.57-4.296-0.243l-1.31,1.635c-0.877-7.112-1.884-14.114-1.884-20.93
			c0.051-7.95,5.419-15.719,14.405-15.698c5.151,0,11.787,3.663,11.787,15.698c0,4.727-1.794,17.37-3.807,28.327l-2.986-5.969
			C513.563,380.488,510.837,380.316,509.828,381.852z"/>
	</g>
	<g>
		<path d="M110.849,407.215l0.085,3.179c0.042,1.237,0.149,1.749,0.619,2.069c0.32,0.213,0.576,0.32,0.747,0.363
			c0.17,0.042,0.256,0.105,0.256,0.234c0,0.148-0.107,0.191-0.341,0.191c-0.341,0-2.283-0.405-2.453-0.447
			c-0.277-0.064-0.405-0.129-0.405-0.256c0-0.172,0.213-0.385,0.256-0.918c0.064-0.619,0.106-1.43,0.106-2.133v-8.447
			c0-0.684-0.064-1.152-0.106-1.473c-0.064-0.32-0.106-0.49-0.106-0.576c0-0.148,0.128-0.17,0.448-0.17
			c0.448,0,1.92,0.064,2.475,0.064c0.213,0.021,0.341,0.063,0.341,0.191c0,0.17-0.107,0.213-0.427,0.234l-0.235,0.021
			c-0.554,0.043-1.152,0.619-1.194,2.518l-0.064,2.688h8.746c1.962,0,3.647,0,4.565-0.107c0.597-0.063,1.066-0.191,1.152-0.831
			c0.042-0.299,0.085-0.769,0.085-1.088c0-0.235,0.064-0.341,0.17-0.341c0.149,0,0.213,0.17,0.213,0.404
			c0,1.408-0.064,2.752-0.064,3.35c0,0.49,0.064,1.834,0.064,2.688c0,0.277-0.064,0.427-0.213,0.427c-0.106,0-0.17-0.085-0.17-0.341
			c0-0.32-0.043-0.576-0.085-0.769c-0.085-0.427-0.555-0.555-1.173-0.618c-0.896-0.107-2.581-0.107-4.543-0.107H110.849z"/>
		<path d="M117.973,385.606c0-0.043-0.021-0.106-0.128-0.106h-0.384c-2.752,0-3.413,0.021-3.989,0.042
			c-0.619,0.043-0.811,0.214-0.981,0.812c-0.043,0.148-0.064,0.469-0.064,0.725c0,0.213-0.064,0.32-0.192,0.32
			c-0.128,0-0.171-0.129-0.171-0.406c0-1.002,0.042-2.324,0.042-2.815c0-0.448-0.042-1.685-0.042-2.41
			c0-0.277,0.042-0.405,0.171-0.405c0.128,0,0.192,0.128,0.192,0.342c0,0.148,0.021,0.319,0.064,0.555
			c0.085,0.49,0.341,0.639,0.981,0.682c0.576,0.043,1.088,0.043,3.84,0.043h3.2c1.664,0,3.093,0,3.882-0.086
			c0.512-0.063,0.854-0.17,0.939-0.746c0.042-0.256,0.064-0.661,0.064-0.96c0-0.192,0.106-0.298,0.192-0.298
			c0.128,0,0.192,0.148,0.192,0.383c0,1.217-0.064,2.453-0.064,2.966c0,0.427,0.064,1.749,0.064,2.474
			c0,0.257-0.064,0.406-0.192,0.406c-0.085,0-0.192-0.086-0.192-0.299c0-0.299-0.021-0.512-0.064-0.683
			c-0.085-0.384-0.427-0.491-0.96-0.555c-0.768-0.085-2.155-0.085-3.818-0.085h-1.387c-0.064,0-0.106,0.063-0.106,0.106v7.082
			c0,0.063,0.021,0.128,0.106,0.128h1.387c1.664,0,3.05-0.021,3.839-0.107c0.512-0.063,0.854-0.17,0.939-0.725
			c0.042-0.256,0.064-0.683,0.064-0.96c0-0.214,0.106-0.299,0.192-0.299c0.128,0,0.192,0.149,0.192,0.384
			c0,1.217-0.064,2.518-0.064,3.051c0,0.427,0.064,1.664,0.064,2.41c0,0.234-0.064,0.363-0.192,0.363
			c-0.085,0-0.192-0.064-0.192-0.299c0-0.277-0.021-0.49-0.064-0.661c-0.085-0.384-0.427-0.491-0.96-0.555
			c-0.768-0.085-2.197-0.085-3.861-0.085h-3.2c-2.752,0-3.264,0-3.84,0.021c-0.619,0.042-0.811,0.213-0.981,0.811
			c-0.043,0.148-0.064,0.469-0.064,0.746c0,0.191-0.064,0.32-0.192,0.32c-0.128,0-0.171-0.15-0.171-0.406
			c0-1.002,0.042-2.239,0.042-2.752c0-0.447-0.042-1.748-0.042-2.495c0-0.256,0.042-0.384,0.171-0.384
			c0.128,0,0.192,0.106,0.192,0.342c0,0.148,0.021,0.319,0.064,0.533c0.085,0.512,0.341,0.66,0.981,0.703
			c0.576,0.043,1.237,0.043,3.989,0.043h0.384c0.107,0,0.128-0.064,0.128-0.128V385.606z"/>
		<path d="M117.312,376.839c-2.752,0-3.264,0-3.84,0.021c-0.619,0.042-0.811,0.214-0.981,0.811c-0.043,0.149-0.064,0.47-0.064,0.747
			c0,0.191-0.064,0.319-0.192,0.319c-0.128,0-0.171-0.149-0.171-0.427c0-0.98,0.042-2.176,0.042-2.709c0-0.598,0.021-4.757,0-5.119
			c-0.021-0.342-0.085-0.641-0.106-0.789c-0.021-0.107-0.085-0.214-0.085-0.299c0-0.107,0.085-0.129,0.171-0.129
			c0.128,0,0.341,0.107,1.173,0.15c0.192,0.021,0.981,0.063,1.195,0.105c0.085,0.021,0.299,0.064,0.299,0.214
			c0,0.128-0.085,0.149-0.235,0.149c-0.128,0-0.448,0.021-0.661,0.128c-0.32,0.149-0.576,0.299-0.662,1.237
			c-0.042,0.32-0.085,2.56-0.085,2.943c0,0.086,0.064,0.129,0.17,0.129h4.48c0.106,0,0.192-0.021,0.192-0.129
			c0-0.426,0-2.857-0.043-3.285c-0.042-0.447-0.106-0.703-0.277-0.896c-0.128-0.149-0.234-0.214-0.234-0.299
			s0.085-0.149,0.192-0.149c0.107,0,0.405,0.043,1.323,0.149c0.362,0.043,1.088,0.085,1.216,0.085c0.149,0,0.405,0.021,0.405,0.192
			c0,0.128-0.064,0.171-0.149,0.171c-0.192,0.021-0.427,0.021-0.661,0.064c-0.363,0.105-0.64,0.341-0.704,1.045
			c-0.042,0.342-0.085,2.475-0.085,2.943c0,0.086,0.085,0.107,0.192,0.107h1.45c0.619,0,2.155,0.021,2.688,0
			c1.237-0.043,1.515-0.619,1.515-2.539c0-0.49-0.021-1.279-0.235-1.771c-0.213-0.47-0.597-0.683-1.344-0.811
			c-0.192-0.043-0.277-0.085-0.277-0.214c0-0.148,0.235-0.17,0.427-0.17c0.405,0,1.643,0.148,2.005,0.256
			c0.469,0.128,0.469,0.299,0.469,1.002c0,1.408-0.021,2.539-0.064,3.456c-0.021,0.917-0.042,1.622-0.042,2.177
			c0,0.213,0.021,0.618,0.021,1.066c0.021,0.447,0.042,0.917,0.042,1.301c0,0.234-0.064,0.363-0.192,0.363
			c-0.085,0-0.192-0.064-0.192-0.299c0-0.277-0.021-0.491-0.064-0.662c-0.085-0.384-0.427-0.49-0.96-0.555
			c-0.768-0.085-2.197-0.085-3.861-0.085H117.312z"/>
		<path d="M115.84,357.726c-3.243,0-3.84,0-4.522,0.043c-0.725,0.042-1.066,0.213-1.216,0.917c-0.043,0.171-0.064,0.533-0.064,0.832
			c0,0.234-0.043,0.363-0.192,0.363c-0.149,0-0.192-0.15-0.192-0.47c0-1.131,0.064-2.475,0.064-3.071
			c0-0.662-0.064-2.006-0.064-3.285c0-2.667,0-6.229,2.432-8.555c1.109-1.066,2.88-2.069,5.418-2.069
			c2.688,0,4.736,1.131,5.952,2.325c1.002,0.981,2.517,3.199,2.517,7.146c0,0.768-0.064,1.643-0.128,2.453s-0.128,1.557-0.128,2.09
			c0,0.235,0,0.705,0.021,1.217c0,0.49,0.042,1.045,0.042,1.472c0,0.277-0.064,0.427-0.213,0.427c-0.106,0-0.17-0.086-0.17-0.342
			c0-0.32-0.043-0.576-0.085-0.768c-0.085-0.427-0.555-0.533-1.173-0.619c-0.896-0.106-2.581-0.106-4.543-0.106H115.84z
			 M118.187,355.059c2.261,0,3.904-0.021,4.309-0.042c0.533-0.021,1.387-0.063,1.621-0.235c0.406-0.277,0.854-1.108,0.854-2.794
			c0-2.176-0.427-3.626-1.536-4.906c-1.173-1.365-3.114-1.792-5.312-1.792c-2.709,0-4.458,1.131-5.333,2.048
			c-1.877,1.963-2.133,4.395-2.133,6.059c0,0.427,0.064,1.216,0.149,1.386c0.085,0.193,0.192,0.257,0.427,0.257
			c0.726,0.021,2.581,0.021,4.267,0.021H118.187z"/>
		<path d="M117.312,338.996c-2.752,0-3.264-0.021-3.84,0.021c-0.64,0.043-0.811,0.214-0.981,0.811
			c-0.043,0.15-0.064,0.47-0.064,0.726c0,0.214-0.064,0.32-0.192,0.32c-0.128,0-0.171-0.128-0.171-0.405
			c0-1.003,0.042-2.262,0.042-2.816c0-0.469-0.042-1.728-0.042-2.41c0-0.277,0.042-0.405,0.171-0.405
			c0.128,0,0.192,0.106,0.192,0.299c0,0.214,0.021,0.319,0.064,0.555c0.085,0.49,0.341,0.64,0.981,0.683
			c0.576,0.043,1.088,0.043,3.84,0.043h2.539c2.645,0,3.669-0.513,4.395-1.43c0.661-0.832,0.725-1.729,0.725-2.367
			c0-0.812-0.235-1.771-0.96-2.518c-0.981-1.045-2.56-1.088-4.416-1.088h-2.283c-2.752,0-3.264,0.021-3.84,0.043
			c-0.619,0.042-0.811,0.191-0.981,0.789c-0.043,0.148-0.064,0.469-0.064,0.682c0,0.214-0.064,0.32-0.192,0.32
			c-0.128,0-0.171-0.128-0.171-0.384c0-0.96,0.042-2.218,0.042-2.239c0-0.214-0.042-1.473-0.042-2.197
			c0-0.256,0.042-0.385,0.171-0.385c0.128,0,0.192,0.107,0.192,0.32s0.021,0.32,0.064,0.555c0.085,0.512,0.341,0.641,0.981,0.683
			c0.576,0.021,1.088,0.042,3.84,0.042h1.941c2.026,0,4.16,0.214,5.461,1.793c1.109,1.322,1.301,2.752,1.301,3.967
			c0,0.982-0.043,2.923-1.237,4.288c-0.832,0.96-2.176,1.706-4.8,1.706H117.312z"/>
		<path d="M124.053,321.675c-1.557,1.856-3.605,2.347-5.354,2.347c-1.237,0-3.371-0.405-4.97-2.197
			c-1.195-1.365-1.92-3.157-1.92-5.951c0-1.174,0.085-1.877,0.192-2.73c0.106-0.704,0.235-1.322,0.299-1.877
			c0.021-0.214,0.106-0.277,0.213-0.277c0.149,0,0.363,0.042,1.003,0.085c0.597,0.042,1.6,0.042,1.962,0.063
			c0.256,0.021,0.448,0.086,0.448,0.256c0,0.15-0.149,0.192-0.384,0.192c-0.576,0.021-1.216,0.256-1.685,0.726
			c-0.619,0.64-1.067,1.898-1.067,3.626c0,1.643,0.299,2.688,1.024,3.542c1.195,1.386,2.944,1.727,4.714,1.727
			c4.309,0,6.357-3.327,6.357-5.844c0-1.664-0.128-2.582-0.96-3.328c-0.362-0.32-0.875-0.576-1.216-0.641
			c-0.277-0.042-0.363-0.085-0.363-0.234c0-0.128,0.171-0.213,0.32-0.213c0.213,0,1.792,0.213,2.41,0.405
			c0.32,0.085,0.405,0.171,0.534,0.49c0.298,0.747,0.405,2.177,0.405,3.392C126.016,317.793,125.482,319.969,124.053,321.675z"/>
		<path d="M118.123,304.481v-0.085c-0.683-0.641-3.37-3.371-3.989-3.926c-0.598-0.533-1.024-0.938-1.344-0.938
			c-0.192,0-0.32,0.085-0.362,0.257c-0.043,0.17-0.085,0.256-0.192,0.256c-0.128,0-0.171-0.107-0.171-0.299
			c0-0.406,0.042-1.43,0.042-1.941c0-0.576-0.042-1.621-0.042-2.197c0-0.191,0.042-0.32,0.171-0.32c0.128,0,0.192,0.107,0.192,0.277
			c0,0.277,0.085,0.747,0.213,1.088c0.213,0.598,0.597,1.195,1.344,1.984c0.555,0.598,3.2,3.392,3.861,3.967
			c0.854-0.66,4.693-4.352,5.376-5.076c0.747-0.832,1.536-1.557,1.941-2.561c0.235-0.555,0.235-0.938,0.235-1.151
			c0-0.149,0.085-0.256,0.192-0.256c0.128,0,0.192,0.106,0.192,0.448v1.643c0,0.555,0,0.896-0.042,1.301
			c-0.085,1.003-0.469,1.621-1.173,2.432s-4.885,4.416-5.439,4.821l-0.256,0.192v0.085h1.643c1.664,0,3.093,0,3.882-0.042
			c0.512-0.043,0.854-0.214,0.939-0.684c0.042-0.256,0.064-0.682,0.064-0.917c0-0.149,0.106-0.256,0.192-0.256
			c0.128,0,0.192,0.149,0.192,0.362c0,1.045-0.064,2.389-0.064,2.859c0,0.426,0.064,1.621,0.064,2.367
			c0,0.234-0.064,0.363-0.192,0.363c-0.085,0-0.192-0.064-0.192-0.299c0-0.277-0.021-0.491-0.064-0.662
			c-0.085-0.384-0.427-0.49-0.96-0.555c-0.768-0.085-2.197-0.085-3.861-0.085h-3.2c-2.752,0-3.264,0-3.84,0.021
			c-0.619,0.042-0.811,0.214-0.981,0.811c-0.043,0.149-0.064,0.47-0.064,0.747c0,0.191-0.064,0.319-0.192,0.319
			c-0.128,0-0.171-0.149-0.171-0.427c0-0.98,0.042-2.176,0.042-2.623c0-0.449-0.042-1.793-0.042-2.411
			c0-0.277,0.042-0.405,0.171-0.405c0.128,0,0.192,0.107,0.192,0.256c0,0.192,0.021,0.299,0.064,0.533
			c0.085,0.512,0.341,0.662,0.981,0.704c0.576,0.021,1.088,0.021,3.84,0.021H118.123z"/>
		<path d="M109.91,284.707c-0.363-0.064-0.555-0.191-0.555-0.363c0-0.17,0.106-0.298,0.661-0.575l11.86-5.824l-12.01-5.802
			c-0.341-0.171-0.512-0.277-0.512-0.47c0-0.191,0.213-0.319,0.661-0.384l13.055-1.941c1.344-0.191,1.962-0.405,2.154-1.045
			c0.192-0.618,0.213-1.045,0.213-1.322c0-0.192,0.021-0.342,0.149-0.342c0.17,0,0.234,0.256,0.234,0.555
			c0,0.533-0.042,3.478-0.106,4.33c-0.042,0.491-0.106,0.619-0.235,0.619c-0.106,0-0.17-0.085-0.234-0.234
			c-0.042-0.128-0.32-0.192-0.917-0.107l-9.279,1.28v0.085l9.514,4.65c1.002,0.491,1.194,0.598,1.194,0.79
			c0,0.191-0.426,0.405-1.066,0.746c-0.981,0.512-4.245,2.197-4.842,2.453c-0.448,0.192-2.965,1.472-4.565,2.219v0.085l8.319,1.109
			c0.384,0.043,0.661,0.064,1.002,0.064c0.405,0,0.598-0.277,0.683-0.641c0.085-0.384,0.107-0.682,0.107-0.896
			c0-0.171,0.042-0.319,0.149-0.319c0.192,0,0.235,0.191,0.235,0.512c0,0.896-0.064,1.855-0.064,2.239
			c0,0.405,0.064,1.429,0.064,2.112c0,0.213-0.042,0.384-0.235,0.384c-0.106,0-0.149-0.128-0.149-0.341c0-0.172,0-0.32-0.064-0.641
			c-0.128-0.598-0.96-0.768-1.686-0.875L109.91,284.707z"/>
		<path d="M118.912,265.828c-3.093,0-7.104-2.177-7.104-7.872c0-4.735,2.624-7.68,6.783-7.68s7.424,3.029,7.424,7.872
			C126.016,263.609,122.133,265.828,118.912,265.828z M119.253,253.071c-4.011,0-6.485,2.41-6.485,5.439
			c0,2.091,1.109,4.544,5.589,4.544c3.733,0,6.677-2.134,6.677-5.675C125.034,256.058,124.416,253.071,119.253,253.071z"/>
		<path d="M117.312,246.779c-2.752,0-3.264,0-3.84,0.021c-0.619,0.043-0.811,0.214-0.981,0.811c-0.043,0.149-0.064,0.47-0.064,0.747
			c0,0.192-0.064,0.32-0.192,0.32c-0.128,0-0.171-0.149-0.171-0.427c0-0.981,0.042-2.176,0.042-2.539
			c0-0.938-0.042-2.176-0.042-2.815c0-3.392,1.749-3.989,2.709-3.989c1.408,0,2.496,1.046,3.179,2.112
			c0.491-1.536,1.792-3.456,3.925-3.456c1.941,0,3.946,1.536,3.946,4.991c0,0.214-0.021,0.854-0.064,1.494
			c-0.021,0.64-0.042,1.301-0.042,1.6c0,0.213,0.021,0.618,0.021,1.066c0.021,0.448,0.042,0.917,0.042,1.301
			c0,0.235-0.064,0.363-0.192,0.363c-0.085,0-0.192-0.064-0.192-0.299c0-0.277-0.021-0.49-0.064-0.661
			c-0.085-0.384-0.427-0.491-0.96-0.555c-0.768-0.085-2.197-0.085-3.861-0.085H117.312z M117.611,244.347
			c0.149,0,0.17-0.063,0.192-0.128c0.042-0.17,0.064-0.447,0.064-0.874c0-0.619-0.064-1.152-0.32-1.473
			c-0.384-0.49-1.045-0.853-1.92-0.853c-1.216,0-2.73,0.725-2.73,2.346c0,0.257,0,0.619,0.042,0.812
			c0.021,0.128,0.107,0.17,0.299,0.17H117.611z M122.944,244.347c1.194,0,1.557-0.063,1.792-0.661
			c0.192-0.49,0.213-0.917,0.213-1.344c0-1.003-0.555-2.304-2.56-2.304c-0.832,0-2.261,0.362-3.221,1.771
			c-0.277,0.384-0.469,0.896-0.469,1.621v0.811c0,0.064,0.021,0.106,0.128,0.106H122.944z"/>
		<path d="M117.312,233.979c-2.752,0-3.264,0-3.84,0.021c-0.619,0.043-0.832,0.235-0.96,0.641c-0.064,0.213-0.085,0.447-0.085,0.683
			c0,0.191-0.043,0.298-0.213,0.298c-0.107,0-0.149-0.148-0.149-0.447c0-0.704,0.042-1.984,0.042-2.518
			c0-0.469-0.042-1.685-0.042-2.41c0-0.234,0.042-0.384,0.149-0.384c0.17,0,0.213,0.106,0.213,0.298
			c0,0.192,0.021,0.342,0.064,0.555c0.085,0.513,0.341,0.662,0.981,0.704c0.576,0.043,1.088,0.043,3.84,0.043h3.2
			c1.75,0,3.2,0,3.968-0.085c0.491-0.064,0.768-0.192,0.854-0.747c0.042-0.256,0.064-0.683,0.064-0.96
			c0-0.213,0.106-0.299,0.192-0.299c0.128,0,0.192,0.149,0.192,0.363c0,1.237-0.064,2.517-0.064,3.028
			c0,0.427,0.064,1.707,0.064,2.453c0,0.235-0.064,0.363-0.192,0.363c-0.085,0-0.192-0.064-0.192-0.299
			c0-0.277-0.021-0.49-0.064-0.661c-0.085-0.384-0.341-0.491-0.875-0.555c-0.747-0.086-2.197-0.086-3.946-0.086H117.312z"/>
		<path d="M120.512,222.78c2.325,0,3.477,0,3.818-0.405c0.277-0.32,0.384-1.045,0.384-2.496c0-1.002-0.021-1.728-0.512-2.197
			c-0.234-0.234-0.747-0.427-1.088-0.469c-0.17-0.021-0.277-0.064-0.277-0.214c0-0.128,0.192-0.17,0.405-0.17
			s1.557,0.128,2.091,0.276c0.405,0.129,0.49,0.214,0.49,1.195c0,1.344-0.021,2.432-0.064,3.37
			c-0.021,0.938-0.042,1.728-0.042,2.496c0,0.213,0.021,0.618,0.021,1.066c0.021,0.448,0.042,0.917,0.042,1.301
			c0,0.235-0.064,0.363-0.192,0.363c-0.085,0-0.192-0.064-0.192-0.299c0-0.277-0.021-0.49-0.064-0.661
			c-0.085-0.384-0.427-0.491-0.96-0.555c-0.768-0.086-2.197-0.086-3.861-0.086h-3.2c-2.752,0-3.264,0-3.84,0.021
			c-0.619,0.043-0.811,0.214-0.981,0.811c-0.043,0.149-0.064,0.385-0.064,0.619c0,0.213-0.064,0.32-0.192,0.32
			c-0.128,0-0.171-0.129-0.171-0.406c0-0.874,0.042-2.068,0.042-2.581c0-0.447-0.042-1.983-0.042-2.709
			c0-0.277,0.042-0.405,0.171-0.405c0.128,0,0.192,0.106,0.192,0.342c0,0.213,0.021,0.512,0.064,0.725
			c0.085,0.513,0.341,0.662,0.981,0.704c0.576,0.043,1.088,0.043,3.84,0.043H120.512z"/>
		<path d="M117.312,213.521c-2.752,0-3.264,0-3.84,0.021c-0.619,0.043-0.811,0.214-0.981,0.811c-0.043,0.149-0.064,0.47-0.064,0.747
			c0,0.192-0.064,0.32-0.192,0.32c-0.128,0-0.171-0.149-0.171-0.427c0-0.981,0.042-2.176,0.042-2.709c0-0.598,0.021-4.758,0-5.12
			c-0.021-0.341-0.085-0.64-0.106-0.789c-0.021-0.106-0.085-0.214-0.085-0.299c0-0.106,0.085-0.128,0.171-0.128
			c0.128,0,0.341,0.106,1.173,0.149c0.192,0.021,0.981,0.063,1.195,0.106c0.085,0.021,0.299,0.064,0.299,0.214
			c0,0.128-0.085,0.148-0.235,0.148c-0.128,0-0.448,0.021-0.661,0.128c-0.32,0.149-0.576,0.299-0.662,1.237
			c-0.042,0.32-0.085,2.561-0.085,2.944c0,0.085,0.064,0.128,0.17,0.128h4.48c0.106,0,0.192-0.021,0.192-0.128
			c0-0.427,0-2.858-0.043-3.285c-0.042-0.448-0.106-0.704-0.277-0.896c-0.128-0.148-0.234-0.213-0.234-0.298
			c0-0.086,0.085-0.149,0.192-0.149c0.107,0,0.405,0.042,1.323,0.149c0.362,0.042,1.088,0.085,1.216,0.085
			c0.149,0,0.405,0.021,0.405,0.192c0,0.128-0.064,0.17-0.149,0.17c-0.192,0.021-0.427,0.021-0.661,0.064
			c-0.363,0.106-0.64,0.341-0.704,1.045c-0.042,0.342-0.085,2.475-0.085,2.944c0,0.085,0.085,0.106,0.192,0.106h1.45
			c0.619,0,2.155,0.021,2.688,0c1.237-0.043,1.515-0.619,1.515-2.538c0-0.491-0.021-1.28-0.235-1.771
			c-0.213-0.469-0.597-0.682-1.344-0.811c-0.192-0.042-0.277-0.085-0.277-0.213c0-0.149,0.235-0.171,0.427-0.171
			c0.405,0,1.643,0.149,2.005,0.256c0.469,0.128,0.469,0.299,0.469,1.003c0,1.408-0.021,2.538-0.064,3.456
			c-0.021,0.917-0.042,1.621-0.042,2.176c0,0.213,0.021,0.618,0.021,1.066c0.021,0.448,0.042,0.917,0.042,1.301
			c0,0.235-0.064,0.363-0.192,0.363c-0.085,0-0.192-0.064-0.192-0.299c0-0.277-0.021-0.49-0.064-0.661
			c-0.085-0.384-0.427-0.491-0.96-0.555c-0.768-0.086-2.197-0.086-3.861-0.086H117.312z"/>
	</g>
	<g>
		<path d="M566.999,274.252c2.894,0,5.238-2.341,5.238-5.233c0-2.888-2.345-5.23-5.238-5.23s-5.239,2.343-5.239,5.23
			C561.76,271.911,564.105,274.252,566.999,274.252z"/>
		<path d="M516.211,215.515l-4.542,9.032l-2.701-4.047c-0.954-1.469-3.491-1.445-4.42,0.04l-4.582,7.36l-2.947-3.68
			c-0.651-0.79-1.794-1.137-2.775-0.84c-0.98,0.293-1.739,1.212-1.851,2.229c-0.856,8.992-2.659,18.226-2.659,27.714
			c0.154,10.618,7.907,20.888,19.644,20.928c7.944,0,17.023-6.802,17.023-20.928h0.003c-0.159-12.451-3.485-24.862-5.28-37.197
			c-0.227-1.055-1.166-1.918-2.237-2.052C517.814,213.942,516.69,214.546,516.211,215.515z M514.371,230.966l2.986-5.968
			c2.013,10.956,3.807,23.6,3.807,28.326c0,12.035-6.636,15.698-11.787,15.698c-8.986,0.021-14.354-7.748-14.405-15.698
			c0-6.814,1.007-13.817,1.884-20.93l1.31,1.635c1.037,1.327,3.417,1.19,4.296-0.242l4.379-6.991l2.988,4.455
			C510.837,232.785,513.563,232.614,514.371,230.966z"/>
		<path d="M532.946,186.614c-13.705,0-26.951,4.764-36.912,12.14c-9.958,7.375-16.778,17.494-16.778,28.409
			c0,13.142-0.045,26.324,0.039,39.445c0.698,9.747,4.612,17.038,10.232,21.746c5.62,4.71,12.777,6.826,19.85,6.826
			c13.487,0,22.875-8.707,30.366-15.085l3.764,2.209c-0.478,18.181,11.955,26.167,21.321,24.607
			c1.202-0.208,2.169-1.356,2.171-2.575c0-6.258-3.301-9.574,1.637-17.169c13.759-0.961,23.245-13.557,23.245-27.305h-0.003
			c0.06-16.874-11.759-31.28-30.12-31.393c-4.831,0-9.889,0.708-14.65,3.271c-2.418,1.298-4.698,3.1-6.835,5.436
			c-0.261-9.354-3.467-15.975-5.893-21.663c-3.218-7.548-5.336-13.224,0.901-25.058C536.125,188.863,534.75,186.6,532.946,186.614z
			 M549.974,281.324c3.863,2.691,7.979,4.771,12.645,5.602c-3.149,6.356-1.871,11.106-1.228,14.633
			c-5.861-0.443-13.328-5.309-12.768-19.334L549.974,281.324z M529.023,192.171c-4.265,10.674-2.376,18.467,0.571,25.385
			c3.331,7.82,7.205,15.053,4.706,28.778c-0.287,1.254,0.508,2.664,1.73,3.068c1.224,0.402,2.704-0.255,3.221-1.434
			c3.087-6.165,6.604-9.634,10.354-11.649s7.821-2.617,12.154-2.617c14.426,0.192,24.728,11.997,24.882,26.161
			c0,11.86-8.12,22.234-19.643,22.234c-5.887,0.109-10.546-2.563-15.429-6.007c-0.861-0.646-2.133-0.682-3.028-0.083l-2.538,1.678
			l-5.154-3.067c-0.929-0.551-2.202-0.449-3.029,0.246c-8.012,6.668-16.566,15.082-28.44,15.082c-6.025,0-11.924-1.805-16.453-5.599
			c-4.527-3.793-7.819-9.584-8.43-18.148v-39.038c0-8.705,5.662-17.552,14.692-24.239
			C507.258,196.944,517.932,192.985,529.023,192.171z"/>
		<path d="M566.999,274.252c2.894,0,5.238-2.341,5.238-5.233c0-2.888-2.345-5.23-5.238-5.23s-5.239,2.343-5.239,5.23
			C561.76,271.911,564.105,274.252,566.999,274.252z"/>
		<path d="M516.211,215.515l-4.542,9.032l-2.701-4.047c-0.954-1.469-3.491-1.445-4.42,0.04l-4.582,7.36l-2.947-3.68
			c-0.651-0.79-1.794-1.137-2.775-0.84c-0.98,0.293-1.739,1.212-1.851,2.229c-0.856,8.992-2.659,18.226-2.659,27.714
			c0.154,10.618,7.907,20.888,19.644,20.928c7.944,0,17.023-6.802,17.023-20.928h0.003c-0.159-12.451-3.485-24.862-5.28-37.197
			c-0.227-1.055-1.166-1.918-2.237-2.052C517.814,213.942,516.69,214.546,516.211,215.515z M514.371,230.966l2.986-5.968
			c2.013,10.956,3.807,23.6,3.807,28.326c0,12.035-6.636,15.698-11.787,15.698c-8.986,0.021-14.354-7.748-14.405-15.698
			c0-6.814,1.007-13.817,1.884-20.93l1.31,1.635c1.037,1.327,3.417,1.19,4.296-0.242l4.379-6.991l2.988,4.455
			C510.837,232.785,513.563,232.614,514.371,230.966z"/>
		<path d="M566.999,263.788c-2.894,0-5.239,2.343-5.239,5.23c0,2.893,2.346,5.233,5.239,5.233s5.238-2.341,5.238-5.233
			C572.237,266.131,569.893,263.788,566.999,263.788z"/>
		<path d="M516.211,215.515l-4.542,9.032l-2.701-4.047c-0.954-1.469-3.491-1.445-4.42,0.04l-4.582,7.36l-2.947-3.68
			c-0.651-0.79-1.794-1.137-2.775-0.84c-0.98,0.293-1.739,1.212-1.851,2.229c-0.856,8.992-2.659,18.226-2.659,27.714
			c0.154,10.618,7.907,20.888,19.644,20.928c7.944,0,17.023-6.802,17.023-20.928h0.003c-0.159-12.451-3.485-24.862-5.28-37.197
			c-0.227-1.055-1.166-1.918-2.237-2.052C517.814,213.942,516.69,214.546,516.211,215.515z M514.371,230.966l2.986-5.968
			c2.013,10.956,3.807,23.6,3.807,28.326c0,12.035-6.636,15.698-11.787,15.698c-8.986,0.021-14.354-7.748-14.405-15.698
			c0-6.814,1.007-13.817,1.884-20.93l1.31,1.635c1.037,1.327,3.417,1.19,4.296-0.242l4.379-6.991l2.988,4.455
			C510.837,232.785,513.563,232.614,514.371,230.966z"/>
	</g>
	<g>
		<circle cx="325.604" cy="399.503" r="3.188"/>
		<path d="M356.553,432.107l2.768-5.504l1.646,2.467c0.581,0.895,2.127,0.88,2.693-0.025l2.792-4.485l1.796,2.243
			c0.397,0.48,1.093,0.692,1.691,0.512c0.597-0.18,1.06-0.738,1.127-1.359c0.522-5.479,1.621-11.105,1.621-16.887
			c-0.094-6.471-4.818-12.729-11.97-12.754c-4.841,0-10.374,4.146-10.374,12.754h-0.002c0.097,7.587,2.124,15.149,3.218,22.666
			c0.138,0.643,0.71,1.169,1.363,1.25C355.576,433.065,356.26,432.697,356.553,432.107z M357.673,422.691l-1.819,3.637
			c-1.227-6.676-2.32-14.381-2.32-17.26c0-7.334,4.044-9.566,7.183-9.566c5.476-0.013,8.747,4.721,8.778,9.566
			c0,4.152-0.614,8.42-1.148,12.753l-0.798-0.996c-0.632-0.809-2.082-0.726-2.618,0.147l-2.668,4.26l-1.821-2.715
			C359.827,421.583,358.166,421.688,357.673,422.691z"/>
		<path d="M346.354,449.719c8.351,0,16.423-2.903,22.493-7.398c6.068-4.494,10.224-10.66,10.224-17.311
			c0-8.009,0.028-16.041-0.023-24.037c-0.426-5.939-2.811-10.383-6.235-13.252s-7.786-4.158-12.096-4.158
			c-8.218,0-13.939,5.305-18.504,9.191l-2.293-1.346c0.291-11.078-7.285-15.945-12.992-14.995c-0.733,0.127-1.322,0.826-1.323,1.569
			c0,3.812,2.011,5.834-0.997,10.462c-8.384,0.585-14.165,8.261-14.165,16.639h0.002c-0.037,10.282,7.166,19.061,18.354,19.13
			c2.944,0,6.026-0.432,8.928-1.994c1.473-0.791,2.862-1.889,4.165-3.312c0.159,5.7,2.113,9.734,3.591,13.201
			c1.961,4.6,3.251,8.059-0.549,15.27C344.417,448.348,345.255,449.728,346.354,449.719z M335.979,392.006
			c-2.354-1.641-4.862-2.907-7.705-3.414c1.918-3.873,1.14-6.768,0.748-8.916c3.572,0.27,8.122,3.234,7.78,11.781L335.979,392.006z
			 M348.745,446.332c2.599-6.504,1.448-11.253-0.348-15.469c-2.03-4.766-4.391-9.172-2.868-17.536
			c0.175-0.765-0.309-1.624-1.054-1.87c-0.746-0.244-1.648,0.156-1.963,0.874c-1.881,3.757-4.024,5.87-6.309,7.099
			s-4.766,1.596-7.406,1.596c-8.791-0.118-15.068-7.312-15.162-15.942c0-7.228,4.948-13.549,11.969-13.549
			c3.587-0.067,6.426,1.562,9.401,3.66c0.525,0.394,1.3,0.415,1.846,0.051l1.546-1.022l3.141,1.869
			c0.566,0.336,1.342,0.273,1.846-0.15c4.882-4.062,10.095-9.189,17.331-9.189c3.671,0,7.266,1.1,10.026,3.411
			c2.758,2.312,4.765,5.841,5.137,11.059v23.788c0,5.305-3.451,10.696-8.953,14.771
			C362.008,443.424,355.504,445.836,348.745,446.332z"/>
		<circle cx="325.604" cy="399.503" r="3.188"/>
		<path d="M356.553,432.107l2.768-5.504l1.646,2.467c0.581,0.895,2.127,0.88,2.693-0.025l2.792-4.485l1.796,2.243
			c0.397,0.48,1.093,0.692,1.691,0.512c0.597-0.18,1.06-0.738,1.127-1.359c0.522-5.479,1.621-11.105,1.621-16.887
			c-0.094-6.471-4.818-12.729-11.97-12.754c-4.841,0-10.374,4.146-10.374,12.754h-0.002c0.097,7.587,2.124,15.149,3.218,22.666
			c0.138,0.643,0.71,1.169,1.363,1.25C355.576,433.065,356.26,432.697,356.553,432.107z M357.673,422.691l-1.819,3.637
			c-1.227-6.676-2.32-14.381-2.32-17.26c0-7.334,4.044-9.566,7.183-9.566c5.476-0.013,8.747,4.721,8.778,9.566
			c0,4.152-0.614,8.42-1.148,12.753l-0.798-0.996c-0.632-0.809-2.082-0.726-2.618,0.147l-2.668,4.26l-1.821-2.715
			C359.827,421.583,358.166,421.688,357.673,422.691z"/>
		<circle cx="325.604" cy="399.503" r="3.188"/>
		<path d="M356.553,432.107l2.768-5.504l1.646,2.467c0.581,0.895,2.127,0.88,2.693-0.025l2.792-4.485l1.796,2.243
			c0.397,0.48,1.093,0.692,1.691,0.512c0.597-0.18,1.06-0.738,1.127-1.359c0.522-5.479,1.621-11.105,1.621-16.887
			c-0.094-6.471-4.818-12.729-11.97-12.754c-4.841,0-10.374,4.146-10.374,12.754h-0.002c0.097,7.587,2.124,15.149,3.218,22.666
			c0.138,0.643,0.71,1.169,1.363,1.25C355.576,433.065,356.26,432.697,356.553,432.107z M357.673,422.691l-1.819,3.637
			c-1.227-6.676-2.32-14.381-2.32-17.26c0-7.334,4.044-9.566,7.183-9.566c5.476-0.013,8.747,4.721,8.778,9.566
			c0,4.152-0.614,8.42-1.148,12.753l-0.798-0.996c-0.632-0.809-2.082-0.726-2.618,0.147l-2.668,4.26l-1.821-2.715
			C359.827,421.583,358.166,421.688,357.673,422.691z"/>
	</g>
	<g>
		<circle cx="325.604" cy="213.555" r="3.188"/>
		<path d="M354.922,180.073c-0.653,0.081-1.225,0.608-1.363,1.251c-1.094,7.516-3.121,15.078-3.218,22.666h0.002
			c0,8.607,5.533,12.753,10.374,12.753c7.152-0.024,11.876-6.282,11.97-12.753c0-5.781-1.099-11.408-1.621-16.888
			c-0.068-0.62-0.53-1.18-1.127-1.358c-0.598-0.182-1.294,0.03-1.691,0.512l-1.796,2.242l-2.792-4.484
			c-0.565-0.906-2.112-0.92-2.693-0.025l-1.646,2.467l-2.768-5.504C356.26,180.36,355.576,179.992,354.922,180.073z M360.442,190.54
			l1.821-2.715l2.668,4.26c0.536,0.873,1.986,0.956,2.618,0.147l0.798-0.996c0.534,4.334,1.148,8.602,1.148,12.754
			c-0.031,4.846-3.302,9.578-8.778,9.566c-3.139,0-7.183-2.232-7.183-9.566c0-2.88,1.093-10.584,2.32-17.261l1.819,3.637
			C358.166,191.371,359.827,191.475,360.442,190.54z"/>
		<path d="M344.932,165.682c3.801,7.211,2.51,10.67,0.549,15.27c-1.478,3.466-3.432,7.5-3.591,13.2
			c-1.302-1.423-2.691-2.521-4.165-3.312c-2.902-1.562-5.984-1.993-8.928-1.993c-11.188,0.068-18.39,8.848-18.354,19.129h-0.002
			c0,8.379,5.781,16.054,14.165,16.639c3.008,4.628,0.997,6.65,0.997,10.463c0.001,0.742,0.59,1.441,1.323,1.568
			c5.707,0.951,13.283-3.916,12.992-14.994l2.293-1.347c4.565,3.888,10.286,9.192,18.504,9.192c4.31,0,8.671-1.289,12.096-4.159
			c3.425-2.869,5.81-7.312,6.235-13.251c0.051-7.996,0.023-16.029,0.023-24.037c0-6.651-4.156-12.817-10.224-17.312
			c-6.069-4.495-14.142-7.397-22.493-7.397C345.255,163.33,344.417,164.711,344.932,165.682z M336.801,221.602
			c0.342,8.547-4.208,11.512-7.78,11.781c0.393-2.148,1.171-5.043-0.748-8.916c2.843-0.508,5.351-1.773,7.705-3.414L336.801,221.602
			z M366.925,173.277c5.502,4.074,8.953,9.466,8.953,14.771v23.788c-0.372,5.219-2.378,8.748-5.137,11.059
			c-2.76,2.312-6.354,3.412-10.026,3.412c-7.236,0-12.449-5.127-17.331-9.19c-0.504-0.424-1.28-0.485-1.846-0.149l-3.141,1.869
			l-1.546-1.023c-0.546-0.364-1.32-0.343-1.846,0.051c-2.975,2.099-5.814,3.728-9.401,3.66c-7.021,0-11.969-6.32-11.969-13.549
			c0.094-8.631,6.371-15.824,15.162-15.941c2.64,0,5.122,0.367,7.406,1.596c2.285,1.228,4.428,3.342,6.309,7.098
			c0.315,0.719,1.217,1.119,1.963,0.874c0.745-0.246,1.229-1.105,1.054-1.87c-1.522-8.363,0.838-12.771,2.868-17.536
			c1.796-4.216,2.947-8.964,0.348-15.468C355.504,167.223,362.008,169.635,366.925,173.277z"/>
		<circle cx="325.604" cy="213.555" r="3.188"/>
		<path d="M354.922,180.073c-0.653,0.081-1.225,0.608-1.363,1.251c-1.094,7.516-3.121,15.078-3.218,22.666h0.002
			c0,8.607,5.533,12.753,10.374,12.753c7.152-0.024,11.876-6.282,11.97-12.753c0-5.781-1.099-11.408-1.621-16.888
			c-0.068-0.62-0.53-1.18-1.127-1.358c-0.598-0.182-1.294,0.03-1.691,0.512l-1.796,2.242l-2.792-4.484
			c-0.565-0.906-2.112-0.92-2.693-0.025l-1.646,2.467l-2.768-5.504C356.26,180.36,355.576,179.992,354.922,180.073z M360.442,190.54
			l1.821-2.715l2.668,4.26c0.536,0.873,1.986,0.956,2.618,0.147l0.798-0.996c0.534,4.334,1.148,8.602,1.148,12.754
			c-0.031,4.846-3.302,9.578-8.778,9.566c-3.139,0-7.183-2.232-7.183-9.566c0-2.88,1.093-10.584,2.32-17.261l1.819,3.637
			C358.166,191.371,359.827,191.475,360.442,190.54z"/>
		<circle cx="325.604" cy="213.555" r="3.188"/>
		<path d="M354.922,180.073c-0.653,0.081-1.225,0.608-1.363,1.251c-1.094,7.516-3.121,15.078-3.218,22.666h0.002
			c0,8.607,5.533,12.753,10.374,12.753c7.152-0.024,11.876-6.282,11.97-12.753c0-5.781-1.099-11.408-1.621-16.888
			c-0.068-0.62-0.53-1.18-1.127-1.358c-0.598-0.182-1.294,0.03-1.691,0.512l-1.796,2.242l-2.792-4.484
			c-0.565-0.906-2.112-0.92-2.693-0.025l-1.646,2.467l-2.768-5.504C356.26,180.36,355.576,179.992,354.922,180.073z M360.442,190.54
			l1.821-2.715l2.668,4.26c0.536,0.873,1.986,0.956,2.618,0.147l0.798-0.996c0.534,4.334,1.148,8.602,1.148,12.754
			c-0.031,4.846-3.302,9.578-8.778,9.566c-3.139,0-7.183-2.232-7.183-9.566c0-2.88,1.093-10.584,2.32-17.261l1.819,3.637
			C358.166,191.371,359.827,191.475,360.442,190.54z"/>
	</g>
	<g>
		<circle cx="60.402" cy="236.678" r="1.239"/>
		<path d="M71.803,223.657c-0.254,0.032-0.477,0.237-0.53,0.487c-0.425,2.922-1.213,5.863-1.251,8.813h0.001
			c0,3.347,2.151,4.959,4.034,4.959c2.781-0.009,4.618-2.442,4.654-4.959c0-2.248-0.427-4.437-0.63-6.567
			c-0.026-0.24-0.206-0.458-0.438-0.527c-0.233-0.071-0.503,0.012-0.658,0.198l-0.699,0.872l-1.085-1.744
			c-0.22-0.352-0.822-0.357-1.047-0.009l-0.64,0.958l-1.076-2.14C72.323,223.77,72.057,223.626,71.803,223.657z M73.949,227.728
			l0.708-1.056l1.037,1.656c0.208,0.34,0.772,0.372,1.018,0.058l0.311-0.388c0.208,1.686,0.446,3.346,0.446,4.96
			c-0.012,1.884-1.284,3.725-3.413,3.72c-1.221,0-2.793-0.868-2.793-3.72c0-1.119,0.425-4.116,0.901-6.712l0.708,1.414
			C73.064,228.051,73.71,228.091,73.949,227.728z"/>
		<path d="M67.918,218.062c1.478,2.804,0.976,4.148,0.213,5.938c-0.575,1.348-1.334,2.916-1.396,5.133
			c-0.507-0.553-1.047-0.98-1.619-1.287c-1.129-0.608-2.327-0.776-3.472-0.776c-4.351,0.027-7.151,3.441-7.137,7.438h0
			c0,3.259,2.248,6.243,5.508,6.471c1.17,1.8,0.388,2.586,0.388,4.068c0,0.288,0.229,0.561,0.515,0.61
			c2.219,0.369,5.165-1.523,5.052-5.831l0.892-0.523c1.775,1.512,4,3.574,7.196,3.574c1.676,0,3.371-0.501,4.703-1.617
			c1.332-1.116,2.259-2.843,2.425-5.152c0.02-3.109,0.009-6.233,0.009-9.348c0-2.586-1.616-4.983-3.976-6.731
			s-5.499-2.877-8.747-2.877C68.044,217.147,67.718,217.684,67.918,218.062z M64.756,239.806c0.133,3.324-1.636,4.478-3.025,4.582
			c0.153-0.836,0.456-1.961-0.291-3.467c1.105-0.198,2.081-0.689,2.996-1.328L64.756,239.806z M76.47,221.015
			c2.14,1.584,3.481,3.681,3.481,5.744v9.25c-0.145,2.029-0.925,3.402-1.998,4.301c-1.073,0.899-2.471,1.326-3.898,1.326
			c-2.813,0-4.841-1.993-6.739-3.573c-0.196-0.165-0.498-0.189-0.718-0.059l-1.222,0.728l-0.601-0.398
			c-0.212-0.142-0.514-0.133-0.718,0.02c-1.157,0.816-2.261,1.449-3.656,1.424c-2.73,0-4.654-2.458-4.654-5.27
			c0.036-3.355,2.478-6.152,5.896-6.198c1.027,0,1.992,0.143,2.88,0.62c0.888,0.478,1.722,1.3,2.453,2.76
			c0.123,0.28,0.473,0.436,0.763,0.341c0.29-0.097,0.478-0.431,0.41-0.728c-0.592-3.252,0.326-4.967,1.115-6.819
			c0.698-1.639,1.146-3.485,0.135-6.015C72.029,218.66,74.559,219.599,76.47,221.015z"/>
		<circle cx="60.402" cy="236.678" r="1.239"/>
		<path d="M71.803,223.657c-0.254,0.032-0.477,0.237-0.53,0.487c-0.425,2.922-1.213,5.863-1.251,8.813h0.001
			c0,3.347,2.151,4.959,4.034,4.959c2.781-0.009,4.618-2.442,4.654-4.959c0-2.248-0.427-4.437-0.63-6.567
			c-0.026-0.24-0.206-0.458-0.438-0.527c-0.233-0.071-0.503,0.012-0.658,0.198l-0.699,0.872l-1.085-1.744
			c-0.22-0.352-0.822-0.357-1.047-0.009l-0.64,0.958l-1.076-2.14C72.323,223.77,72.057,223.626,71.803,223.657z M73.949,227.728
			l0.708-1.056l1.037,1.656c0.208,0.34,0.772,0.372,1.018,0.058l0.311-0.388c0.208,1.686,0.446,3.346,0.446,4.96
			c-0.012,1.884-1.284,3.725-3.413,3.72c-1.221,0-2.793-0.868-2.793-3.72c0-1.119,0.425-4.116,0.901-6.712l0.708,1.414
			C73.064,228.051,73.71,228.091,73.949,227.728z"/>
		<circle cx="60.402" cy="236.678" r="1.239"/>
		<path d="M71.803,223.657c-0.254,0.032-0.477,0.237-0.53,0.487c-0.425,2.922-1.213,5.863-1.251,8.813h0.001
			c0,3.347,2.151,4.959,4.034,4.959c2.781-0.009,4.618-2.442,4.654-4.959c0-2.248-0.427-4.437-0.63-6.567
			c-0.026-0.24-0.206-0.458-0.438-0.527c-0.233-0.071-0.503,0.012-0.658,0.198l-0.699,0.872l-1.085-1.744
			c-0.22-0.352-0.822-0.357-1.047-0.009l-0.64,0.958l-1.076-2.14C72.323,223.77,72.057,223.626,71.803,223.657z M73.949,227.728
			l0.708-1.056l1.037,1.656c0.208,0.34,0.772,0.372,1.018,0.058l0.311-0.388c0.208,1.686,0.446,3.346,0.446,4.96
			c-0.012,1.884-1.284,3.725-3.413,3.72c-1.221,0-2.793-0.868-2.793-3.72c0-1.119,0.425-4.116,0.901-6.712l0.708,1.414
			C73.064,228.051,73.71,228.091,73.949,227.728z"/>
	</g>
</g>
<g id="Layer_2">
	<rect x="0.551" fill="none" stroke="#000000" stroke-miterlimit="10" width="792" height="612"/>
</g>
</svg>
