<?xml version="1.0" encoding="utf-8"?>
<!-- Generator: Adobe Illustrator 16.0.4, SVG Export Plug-In . SVG Version: 6.00 Build 0)  -->
<!DOCTYPE svg PUBLIC "-//W3C//DTD SVG 1.1//EN" "http://www.w3.org/Graphics/SVG/1.1/DTD/svg11.dtd">
<svg version="1.1" id="Layer_1" xmlns="http://www.w3.org/2000/svg" xmlns:xlink="http://www.w3.org/1999/xlink" x="0px" y="0px"
	 width="792px" height="612px" viewBox="0 0 792 612" enable-background="new 0 0 792 612" xml:space="preserve">
<g>
	<rect fill="#F5B6D5" width="792" height="612"/>
	<path fill="none" stroke="#FF0000" stroke-linecap="round" stroke-miterlimit="10" d="M96,6l10.629,88.421"/>
	<path fill="none" stroke="#FF0000" stroke-linecap="round" stroke-miterlimit="10" d="M64.234,6
		c0-22.849,14.222-41.371,31.766-41.371S127.766-16.849,127.766,6S113.544,47.371,96,47.371S64.234,28.849,64.234,6z"/>
	<path fill="none" stroke="#FF0000" stroke-linecap="round" stroke-miterlimit="10" d="M172.715,6l16.07,70.758"/>
	<path fill="none" stroke="#FF0000" stroke-linecap="round" stroke-miterlimit="10" d="M135.038,6
		c0-22.412,16.869-40.581,37.677-40.581S210.392-16.412,210.392,6s-16.869,40.581-37.677,40.581S135.038,28.412,135.038,6z"/>
	<path fill="none" stroke="#FF0000" stroke-linecap="round" stroke-miterlimit="10" d="M248.369,6l12.942,76.881"/>
	<path fill="none" stroke="#FF0000" stroke-linecap="round" stroke-miterlimit="10" d="M218.774,6
		c0-24.339,13.25-44.07,29.594-44.07S277.963-18.339,277.963,6s-13.25,44.07-29.594,44.07S218.774,30.339,218.774,6z"/>
	<path fill="none" stroke="#FF0000" stroke-linecap="round" stroke-miterlimit="10" d="M302.603,6l11.514,72.735"/>
	<path fill="none" stroke="#FF0000" stroke-linecap="round" stroke-miterlimit="10" d="M288.002,6
		c0-24.464,6.537-44.296,14.601-44.296S317.204-18.464,317.204,6s-6.537,44.296-14.601,44.296S288.002,30.464,288.002,6z"/>
	<path fill="none" stroke="#FF0000" stroke-linecap="round" stroke-miterlimit="10" d="M378.094,6l10.922,85.001"/>
	<path fill="none" stroke="#FF0000" stroke-linecap="round" stroke-miterlimit="10" d="M364.821,6
		c0-21.015,5.942-38.05,13.272-38.05S391.365-15.015,391.365,6s-5.941,38.05-13.271,38.05S364.821,27.015,364.821,6z"/>
	<path fill="none" stroke="#FF0000" stroke-linecap="round" stroke-miterlimit="10" d="M431.336,6l13.242,71.028"/>
	<path fill="none" stroke="#FF0000" stroke-linecap="round" stroke-miterlimit="10" d="M392.535,6
		c0-24.233,17.372-43.878,38.801-43.878c21.43,0,38.802,19.645,38.802,43.878s-17.372,43.878-38.802,43.878
		C409.907,49.878,392.535,30.233,392.535,6z"/>
	<path fill="none" stroke="#FF0000" stroke-linecap="round" stroke-miterlimit="10" d="M490.931,6l13.619,82.097"/>
	<path fill="none" stroke="#FF0000" stroke-linecap="round" stroke-miterlimit="10" d="M459.412,6
		c0-20.154,14.111-36.493,31.519-36.493S522.449-14.154,522.449,6s-14.111,36.493-31.519,36.493S459.412,26.154,459.412,6z"/>
	<path fill="none" stroke="#FF0000" stroke-linecap="round" stroke-miterlimit="10" d="M543.505,6l16.972,86.727"/>
	<path fill="none" stroke="#FF0000" stroke-linecap="round" stroke-miterlimit="10" d="M530.145,6
		c0-20.916,5.981-37.872,13.36-37.872c7.378,0,13.359,16.956,13.359,37.872s-5.981,37.872-13.359,37.872
		C536.126,43.872,530.145,26.916,530.145,6z"/>
	<path fill="none" stroke="#FF0000" stroke-linecap="round" stroke-miterlimit="10" d="M600.076,6l13.74,81.662"/>
	<path fill="none" stroke="#FF0000" stroke-linecap="round" stroke-miterlimit="10" d="M576.072,6
		c0-23.621,10.747-42.77,24.004-42.77S624.08-17.621,624.08,6s-10.747,42.77-24.004,42.77S576.072,29.621,576.072,6z"/>
	<path fill="none" stroke="#FF0000" stroke-linecap="round" stroke-miterlimit="10" d="M694.486,6l16.251,82.055"/>
	<path fill="none" stroke="#FF0000" stroke-linecap="round" stroke-miterlimit="10" d="M669.083,6
		c0-22.525,11.373-40.786,25.403-40.786S719.89-16.525,719.89,6s-11.373,40.786-25.403,40.786S669.083,28.525,669.083,6z"/>
	<path fill="none" stroke="#FF0000" stroke-linecap="round" stroke-miterlimit="10" d="M96,58.217l10.504,88.226"/>
	<path fill="none" stroke="#FF0000" stroke-linecap="round" stroke-miterlimit="10" d="M78.192,58.217
		c0-22.604,7.973-40.928,17.808-40.928s17.808,18.324,17.808,40.928c0,22.604-7.973,40.927-17.808,40.927
		S78.192,80.82,78.192,58.217z"/>
	<path fill="none" stroke="#FF0000" stroke-linecap="round" stroke-miterlimit="10" d="M152.572,58.217l18.385,77.337"/>
	<path fill="none" stroke="#FF0000" stroke-linecap="round" stroke-miterlimit="10" d="M122.458,58.217
		c0-20.854,13.482-37.759,30.114-37.759c16.632,0,30.114,16.905,30.114,37.759c0,20.854-13.482,37.759-30.114,37.759
		C135.941,95.976,122.458,79.07,122.458,58.217z"/>
	<path fill="none" stroke="#FF0000" stroke-linecap="round" stroke-miterlimit="10" d="M233.84,58.217l18.325,88.825"/>
	<path fill="none" stroke="#FF0000" stroke-linecap="round" stroke-miterlimit="10" d="M199.493,58.217
		c0-20.351,15.378-36.849,34.347-36.849s34.347,16.498,34.347,36.849c0,20.351-15.377,36.848-34.347,36.848
		S199.493,78.567,199.493,58.217z"/>
	<path fill="none" stroke="#FF0000" stroke-linecap="round" stroke-miterlimit="10" d="M295.427,58.217l16.555,75.064"/>
	<path fill="none" stroke="#FF0000" stroke-linecap="round" stroke-miterlimit="10" d="M281.524,58.217
		c0-22.842,6.225-41.358,13.903-41.358s13.903,18.517,13.903,41.358c0,22.841-6.224,41.358-13.903,41.358
		S281.524,81.058,281.524,58.217z"/>
	<path fill="none" stroke="#FF0000" stroke-linecap="round" stroke-miterlimit="10" d="M357.013,58.217l12.328,86.364"/>
	<path fill="none" stroke="#FF0000" stroke-linecap="round" stroke-miterlimit="10" d="M341.223,58.217
		c0-19.496,7.069-35.301,15.79-35.301c8.72,0,15.789,15.805,15.789,35.301c0,19.496-7.069,35.3-15.789,35.3
		C348.292,93.517,341.223,77.712,341.223,58.217z"/>
	<path fill="none" stroke="#FF0000" stroke-linecap="round" stroke-miterlimit="10" d="M414.683,58.217l14.999,87.16"/>
	<path fill="none" stroke="#FF0000" stroke-linecap="round" stroke-miterlimit="10" d="M376.269,58.217
		c0-19.634,17.198-35.55,38.414-35.55c21.215,0,38.414,15.917,38.414,35.55s-17.199,35.55-38.414,35.55
		C393.467,93.767,376.269,77.851,376.269,58.217z"/>
	<path fill="none" stroke="#FF0000" stroke-linecap="round" stroke-miterlimit="10" d="M507.935,58.217l14.112,75.152"/>
	<path fill="none" stroke="#FF0000" stroke-linecap="round" stroke-miterlimit="10" d="M477.255,58.217
		c0-22.417,13.736-40.589,30.68-40.589c16.944,0,30.68,18.172,30.68,40.589c0,22.417-13.735,40.588-30.68,40.588
		C490.991,98.805,477.255,80.633,477.255,58.217z"/>
	<path fill="none" stroke="#FF0000" stroke-linecap="round" stroke-miterlimit="10" d="M570.376,58.217l14.467,73.165"/>
	<path fill="none" stroke="#FF0000" stroke-linecap="round" stroke-miterlimit="10" d="M551.843,58.217
		c0-19.712,8.298-35.692,18.533-35.692c10.236,0,18.534,15.98,18.534,35.692s-8.298,35.691-18.534,35.691
		C560.141,93.908,551.843,77.929,551.843,58.217z"/>
	<path fill="none" stroke="#FF0000" stroke-linecap="round" stroke-miterlimit="10" d="M635.363,58.217l18.973,79.464"/>
	<path fill="none" stroke="#FF0000" stroke-linecap="round" stroke-miterlimit="10" d="M624.711,58.217
		c0-20.697,4.769-37.476,10.652-37.476c5.883,0,10.651,16.779,10.651,37.476s-4.769,37.476-10.651,37.476
		C629.479,95.692,624.711,78.914,624.711,58.217z"/>
	<path fill="none" stroke="#FF0000" stroke-linecap="round" stroke-miterlimit="10" d="M96,117.946l19.724,79.727"/>
	<path fill="none" stroke="#FF0000" stroke-linecap="round" stroke-miterlimit="10" d="M79.752,117.946
		c0-23.613,7.274-42.755,16.248-42.755s16.248,19.142,16.248,42.755S104.974,160.701,96,160.701S79.752,141.559,79.752,117.946z"/>
	<path fill="none" stroke="#FF0000" stroke-linecap="round" stroke-miterlimit="10" d="M159.839,117.946l15.504,77.868"/>
	<path fill="none" stroke="#FF0000" stroke-linecap="round" stroke-miterlimit="10" d="M136.765,117.946
		c0-23.961,10.331-43.386,23.075-43.386c12.744,0,23.075,19.425,23.075,43.386s-10.331,43.385-23.075,43.385
		C147.096,161.332,136.765,141.907,136.765,117.946z"/>
	<path fill="none" stroke="#FF0000" stroke-linecap="round" stroke-miterlimit="10" d="M241.189,117.946l10.146,77.788"/>
	<path fill="none" stroke="#FF0000" stroke-linecap="round" stroke-miterlimit="10" d="M228.476,117.946
		c0-23.93,5.692-43.329,12.714-43.329s12.714,19.399,12.714,43.329s-5.692,43.329-12.714,43.329S228.476,141.876,228.476,117.946z"
		/>
	<path fill="none" stroke="#FF0000" stroke-linecap="round" stroke-miterlimit="10" d="M308.866,117.946l16.17,80.855"/>
	<path fill="none" stroke="#FF0000" stroke-linecap="round" stroke-miterlimit="10" d="M274.197,117.946
		c0-23.502,15.522-42.554,34.669-42.554c19.147,0,34.67,19.052,34.67,42.554s-15.522,42.554-34.67,42.554
		C289.719,160.5,274.197,141.448,274.197,117.946z"/>
	<path fill="none" stroke="#FF0000" stroke-linecap="round" stroke-miterlimit="10" d="M384.662,117.946l18.92,84.892"/>
	<path fill="none" stroke="#FF0000" stroke-linecap="round" stroke-miterlimit="10" d="M358.403,117.946
		c0-20.647,11.757-37.384,26.259-37.384s26.259,16.737,26.259,37.384c0,20.646-11.757,37.384-26.259,37.384
		S358.403,138.593,358.403,117.946z"/>
	<path fill="none" stroke="#FF0000" stroke-linecap="round" stroke-miterlimit="10" d="M447.378,117.946l13.249,77.193"/>
	<path fill="none" stroke="#FF0000" stroke-linecap="round" stroke-miterlimit="10" d="M425.19,117.946
		c0-23.822,9.934-43.134,22.188-43.134s22.188,19.312,22.188,43.134s-9.934,43.134-22.188,43.134S425.19,141.769,425.19,117.946z"/>
	<path fill="none" stroke="#FF0000" stroke-linecap="round" stroke-miterlimit="10" d="M525.975,117.946l13.183,73.216"/>
	<path fill="none" stroke="#FF0000" stroke-linecap="round" stroke-miterlimit="10" d="M492.101,117.946
		c0-22.867,15.166-41.405,33.874-41.405s33.874,18.538,33.874,41.405s-15.166,41.405-33.874,41.405S492.101,140.813,492.101,117.946
		z"/>
	<path fill="none" stroke="#FF0000" stroke-linecap="round" stroke-miterlimit="10" d="M576.059,117.946l18.134,72.367"/>
	<path fill="none" stroke="#FF0000" stroke-linecap="round" stroke-miterlimit="10" d="M561.354,117.946
		c0-23.115,6.584-41.854,14.705-41.854c8.122,0,14.705,18.739,14.705,41.854s-6.583,41.854-14.705,41.854
		C567.938,159.8,561.354,141.062,561.354,117.946z"/>
	<path fill="none" stroke="#FF0000" stroke-linecap="round" stroke-miterlimit="10" d="M646.519,117.946l18.28,81.628"/>
	<path fill="none" stroke="#FF0000" stroke-linecap="round" stroke-miterlimit="10" d="M628.072,117.946
		c0-23.98,8.259-43.42,18.446-43.42c10.187,0,18.445,19.44,18.445,43.42s-8.259,43.42-18.445,43.42
		C636.331,161.366,628.072,141.926,628.072,117.946z"/>
	<path fill="none" stroke="#FF0000" stroke-linecap="round" stroke-miterlimit="10" d="M96,168.633l12.832,89.389"/>
	<path fill="none" stroke="#FF0000" stroke-linecap="round" stroke-miterlimit="10" d="M56.905,168.633
		c0-22.198,17.503-40.193,39.095-40.193s39.095,17.995,39.095,40.193S117.591,208.826,96,208.826S56.905,190.831,56.905,168.633z"/>
	<path fill="none" stroke="#FF0000" stroke-linecap="round" stroke-miterlimit="10" d="M182.623,168.633l13.978,81.463"/>
	<path fill="none" stroke="#FF0000" stroke-linecap="round" stroke-miterlimit="10" d="M164.933,168.633
		c0-24.342,7.92-44.075,17.689-44.075c9.77,0,17.69,19.733,17.69,44.075c0,24.342-7.92,44.075-17.69,44.075
		C172.853,212.708,164.933,192.975,164.933,168.633z"/>
	<path fill="none" stroke="#FF0000" stroke-linecap="round" stroke-miterlimit="10" d="M259.299,168.633l11.155,75.393"/>
	<path fill="none" stroke="#FF0000" stroke-linecap="round" stroke-miterlimit="10" d="M246.322,168.633
		c0-23.113,5.81-41.85,12.977-41.85c7.167,0,12.977,18.737,12.977,41.85c0,23.112-5.81,41.849-12.977,41.849
		C252.132,210.482,246.322,191.745,246.322,168.633z"/>
	<path fill="none" stroke="#FF0000" stroke-linecap="round" stroke-miterlimit="10" d="M316.617,168.633l14.249,79.936"/>
	<path fill="none" stroke="#FF0000" stroke-linecap="round" stroke-miterlimit="10" d="M299.44,168.633
		c0-19.34,7.69-35.019,17.177-35.019s17.176,15.679,17.176,35.019s-7.689,35.019-17.176,35.019S299.44,187.973,299.44,168.633z"/>
	<path fill="none" stroke="#FF0000" stroke-linecap="round" stroke-miterlimit="10" d="M391.161,168.633l18.138,75.592"/>
	<path fill="none" stroke="#FF0000" stroke-linecap="round" stroke-miterlimit="10" d="M356.426,168.633
		c0-24.378,15.552-44.14,34.735-44.14c19.185,0,34.735,19.762,34.735,44.14s-15.551,44.14-34.735,44.14
		C371.978,212.773,356.426,193.011,356.426,168.633z"/>
	<path fill="none" stroke="#FF0000" stroke-linecap="round" stroke-miterlimit="10" d="M471.266,168.633l13.056,72.083"/>
	<path fill="none" stroke="#FF0000" stroke-linecap="round" stroke-miterlimit="10" d="M450.874,168.633
		c0-24.23,9.13-43.873,20.392-43.873c11.263,0,20.393,19.643,20.393,43.873s-9.13,43.873-20.393,43.873
		C460.004,212.506,450.874,192.863,450.874,168.633z"/>
	<path fill="none" stroke="#FF0000" stroke-linecap="round" stroke-miterlimit="10" d="M527.121,168.633l17.896,82.671"/>
	<path fill="none" stroke="#FF0000" stroke-linecap="round" stroke-miterlimit="10" d="M508.725,168.633
		c0-19.365,8.236-35.062,18.396-35.062c10.159,0,18.396,15.698,18.396,35.062c0,19.364-8.236,35.062-18.396,35.062
		C516.961,203.695,508.725,187.997,508.725,168.633z"/>
	<path fill="none" stroke="#FF0000" stroke-linecap="round" stroke-miterlimit="10" d="M598.643,168.633l19.283,74.647"/>
	<path fill="none" stroke="#FF0000" stroke-linecap="round" stroke-miterlimit="10" d="M562.954,168.633
		c0-21.17,15.978-38.332,35.688-38.332c19.71,0,35.688,17.162,35.688,38.332c0,21.17-15.979,38.332-35.688,38.332
		C578.932,206.965,562.954,189.803,562.954,168.633z"/>
	<path fill="none" stroke="#FF0000" stroke-linecap="round" stroke-miterlimit="10" d="M663.196,168.633l18.733,74.356"/>
	<path fill="none" stroke="#FF0000" stroke-linecap="round" stroke-miterlimit="10" d="M631.027,168.633
		c0-23.782,14.402-43.061,32.169-43.061s32.169,19.279,32.169,43.061s-14.402,43.061-32.169,43.061S631.027,192.415,631.027,168.633
		z"/>
	<path fill="none" stroke="#FF0000" stroke-linecap="round" stroke-miterlimit="10" d="M96,227.151l12.483,81.804"/>
	<path fill="none" stroke="#FF0000" stroke-linecap="round" stroke-miterlimit="10" d="M62.155,227.151
		c0-22.878,15.153-41.425,33.845-41.425s33.845,18.546,33.845,41.425c0,22.878-15.153,41.425-33.845,41.425
		S62.155,250.029,62.155,227.151z"/>
	<path fill="none" stroke="#FF0000" stroke-linecap="round" stroke-miterlimit="10" d="M186.285,227.151l17.143,71.288"/>
	<path fill="none" stroke="#FF0000" stroke-linecap="round" stroke-miterlimit="10" d="M149.731,227.151
		c0-20.617,16.366-37.331,36.554-37.331s36.554,16.713,36.554,37.331c0,20.617-16.366,37.33-36.554,37.33
		S149.731,247.768,149.731,227.151z"/>
	<path fill="none" stroke="#FF0000" stroke-linecap="round" stroke-miterlimit="10" d="M241.909,227.151l15.426,72.584"/>
	<path fill="none" stroke="#FF0000" stroke-linecap="round" stroke-miterlimit="10" d="M217.299,227.151
		c0-22.95,11.018-41.554,24.61-41.554s24.61,18.604,24.61,41.554s-11.018,41.554-24.61,41.554S217.299,250.101,217.299,227.151z"/>
	<path fill="none" stroke="#FF0000" stroke-linecap="round" stroke-miterlimit="10" d="M314.777,227.151l15.123,77.354"/>
	<path fill="none" stroke="#FF0000" stroke-linecap="round" stroke-miterlimit="10" d="M287.213,227.151
		c0-23.973,12.341-43.407,27.564-43.407c15.223,0,27.563,19.434,27.563,43.407c0,23.973-12.341,43.407-27.563,43.407
		C299.554,270.558,287.213,251.124,287.213,227.151z"/>
	<path fill="none" stroke="#FF0000" stroke-linecap="round" stroke-miterlimit="10" d="M403.998,227.151l14.641,83.733"/>
	<path fill="none" stroke="#FF0000" stroke-linecap="round" stroke-miterlimit="10" d="M390.285,227.151
		c0-23.916,6.14-43.303,13.713-43.303s13.713,19.387,13.713,43.303c0,23.915-6.14,43.303-13.713,43.303
		S390.285,251.066,390.285,227.151z"/>
	<path fill="none" stroke="#FF0000" stroke-linecap="round" stroke-miterlimit="10" d="M483.008,227.151l10.17,82.383"/>
	<path fill="none" stroke="#FF0000" stroke-linecap="round" stroke-miterlimit="10" d="M472.87,227.151
		c0-20.564,4.539-37.234,10.138-37.234c5.598,0,10.137,16.67,10.137,37.234c0,20.563-4.539,37.234-10.137,37.234
		C477.409,264.385,472.87,247.715,472.87,227.151z"/>
	<path fill="none" stroke="#FF0000" stroke-linecap="round" stroke-miterlimit="10" d="M541.224,227.151l12.809,88.901"/>
	<path fill="none" stroke="#FF0000" stroke-linecap="round" stroke-miterlimit="10" d="M524.576,227.151
		c0-20.045,7.453-36.294,16.647-36.294s16.648,16.249,16.648,36.294c0,20.044-7.454,36.294-16.648,36.294
		S524.576,247.196,524.576,227.151z"/>
	<path fill="none" stroke="#FF0000" stroke-linecap="round" stroke-miterlimit="10" d="M611.301,227.151l18.579,79.716"/>
	<path fill="none" stroke="#FF0000" stroke-linecap="round" stroke-miterlimit="10" d="M577.701,227.151
		c0-21.205,15.043-38.395,33.6-38.395s33.6,17.19,33.6,38.395s-15.043,38.394-33.6,38.394S577.701,248.356,577.701,227.151z"/>
	<path fill="none" stroke="#FF0000" stroke-linecap="round" stroke-miterlimit="10" d="M680.962,227.151l13.446,81.901"/>
	<path fill="none" stroke="#FF0000" stroke-linecap="round" stroke-miterlimit="10" d="M660.933,227.151
		c0-21.694,8.967-39.281,20.029-39.281c11.062,0,20.029,17.586,20.029,39.281c0,21.694-8.968,39.28-20.029,39.28
		C669.899,266.432,660.933,248.845,660.933,227.151z"/>
	<path fill="none" stroke="#FF0000" stroke-linecap="round" stroke-miterlimit="10" d="M96,286.157l13.96,82.476"/>
	<path fill="none" stroke="#FF0000" stroke-linecap="round" stroke-miterlimit="10" d="M79.418,286.157
		c0-22.8,7.424-41.283,16.582-41.283s16.582,18.483,16.582,41.283S105.158,327.44,96,327.44S79.418,308.957,79.418,286.157z"/>
	<path fill="none" stroke="#FF0000" stroke-linecap="round" stroke-miterlimit="10" d="M189.686,286.157l16.807,74.6"/>
	<path fill="none" stroke="#FF0000" stroke-linecap="round" stroke-miterlimit="10" d="M159.945,286.157
		c0-21.52,13.315-38.964,29.74-38.964c16.425,0,29.74,17.445,29.74,38.964s-13.315,38.964-29.74,38.964
		C173.26,325.121,159.945,307.677,159.945,286.157z"/>
	<path fill="none" stroke="#FF0000" stroke-linecap="round" stroke-miterlimit="10" d="M259.946,286.157l11.192,79.897"/>
	<path fill="none" stroke="#FF0000" stroke-linecap="round" stroke-miterlimit="10" d="M227.062,286.157
		c0-22.144,14.723-40.096,32.884-40.096c18.162,0,32.884,17.952,32.884,40.096c0,22.145-14.723,40.096-32.884,40.096
		C241.785,326.253,227.062,308.302,227.062,286.157z"/>
	<path fill="none" stroke="#FF0000" stroke-linecap="round" stroke-miterlimit="10" d="M351.927,286.157l12.036,78.507"/>
	<path fill="none" stroke="#FF0000" stroke-linecap="round" stroke-miterlimit="10" d="M340.815,286.157
		c0-20.053,4.975-36.31,11.111-36.31c6.138,0,11.112,16.256,11.112,36.31s-4.975,36.31-11.112,36.31
		C345.79,322.467,340.815,306.21,340.815,286.157z"/>
	<path fill="none" stroke="#FF0000" stroke-linecap="round" stroke-miterlimit="10" d="M424.733,286.157l16.414,83.269"/>
	<path fill="none" stroke="#FF0000" stroke-linecap="round" stroke-miterlimit="10" d="M396.403,286.157
		c0-23.537,12.685-42.617,28.33-42.617c15.646,0,28.331,19.08,28.331,42.617c0,23.536-12.685,42.616-28.331,42.616
		C409.088,328.773,396.403,309.693,396.403,286.157z"/>
	<path fill="none" stroke="#FF0000" stroke-linecap="round" stroke-miterlimit="10" d="M484.551,286.157l13.208,77.359"/>
	<path fill="none" stroke="#FF0000" stroke-linecap="round" stroke-miterlimit="10" d="M468.465,286.157
		c0-24.406,7.201-44.191,16.086-44.191c8.884,0,16.086,19.785,16.086,44.191s-7.202,44.192-16.086,44.192
		C475.666,330.35,468.465,310.563,468.465,286.157z"/>
	<path fill="none" stroke="#FF0000" stroke-linecap="round" stroke-miterlimit="10" d="M577.762,286.157l12.084,74.997"/>
	<path fill="none" stroke="#FF0000" stroke-linecap="round" stroke-miterlimit="10" d="M542.03,286.157
		c0-20.56,15.998-37.228,35.731-37.228s35.73,16.667,35.73,37.228c0,20.561-15.997,37.228-35.73,37.228
		S542.03,306.718,542.03,286.157z"/>
	<path fill="none" stroke="#FF0000" stroke-linecap="round" stroke-miterlimit="10" d="M627.865,286.157l18.311,87.646"/>
	<path fill="none" stroke="#FF0000" stroke-linecap="round" stroke-miterlimit="10" d="M617,286.157
		c0-20.69,4.864-37.463,10.865-37.463c6,0,10.865,16.772,10.865,37.463s-4.865,37.464-10.865,37.464
		C621.864,323.621,617,306.848,617,286.157z"/>
	<path fill="none" stroke="#FF0000" stroke-linecap="round" stroke-miterlimit="10" d="M96,344.508l14.303,87.267"/>
	<path fill="none" stroke="#FF0000" stroke-linecap="round" stroke-miterlimit="10" d="M80.083,344.508
		c0-21.919,7.126-39.688,15.917-39.688s15.917,17.769,15.917,39.688c0,21.92-7.126,39.688-15.917,39.688
		S80.083,366.428,80.083,344.508z"/>
	<path fill="none" stroke="#FF0000" stroke-linecap="round" stroke-miterlimit="10" d="M164.485,344.508l17.776,76.688"/>
	<path fill="none" stroke="#FF0000" stroke-linecap="round" stroke-miterlimit="10" d="M143.867,344.508
		c0-20.576,9.231-37.258,20.619-37.258c11.387,0,20.618,16.682,20.618,37.258c0,20.577-9.231,37.258-20.618,37.258
		C153.098,381.766,143.867,365.085,143.867,344.508z"/>
	<path fill="none" stroke="#FF0000" stroke-linecap="round" stroke-miterlimit="10" d="M219.628,344.508l11.047,82.426"/>
	<path fill="none" stroke="#FF0000" stroke-linecap="round" stroke-miterlimit="10" d="M183.665,344.508
		c0-22.266,16.101-40.316,35.963-40.316c19.862,0,35.963,18.051,35.963,40.316c0,22.267-16.101,40.316-35.963,40.316
		C199.766,384.824,183.665,366.774,183.665,344.508z"/>
	<path fill="none" stroke="#FF0000" stroke-linecap="round" stroke-miterlimit="10" d="M295.367,344.508l16.505,77.852"/>
	<path fill="none" stroke="#FF0000" stroke-linecap="round" stroke-miterlimit="10" d="M266.881,344.508
		c0-24.645,12.753-44.625,28.486-44.625c15.733,0,28.487,19.98,28.487,44.625c0,24.646-12.754,44.625-28.487,44.625
		C279.634,389.133,266.881,369.154,266.881,344.508z"/>
	<path fill="none" stroke="#FF0000" stroke-linecap="round" stroke-miterlimit="10" d="M392.568,344.508l16.351,85.51"/>
	<path fill="none" stroke="#FF0000" stroke-linecap="round" stroke-miterlimit="10" d="M378.342,344.508
		c0-19.627,6.37-35.537,14.227-35.537c7.857,0,14.228,15.91,14.228,35.537s-6.37,35.538-14.228,35.538
		C384.712,380.046,378.342,364.135,378.342,344.508z"/>
	<path fill="none" stroke="#FF0000" stroke-linecap="round" stroke-miterlimit="10" d="M488.953,344.508l13.776,77.428"/>
	<path fill="none" stroke="#FF0000" stroke-linecap="round" stroke-miterlimit="10" d="M459.709,344.508
		c0-24.584,13.093-44.514,29.244-44.514c16.15,0,29.243,19.93,29.243,44.514c0,24.585-13.093,44.515-29.243,44.515
		C472.802,389.022,459.709,369.093,459.709,344.508z"/>
	<path fill="none" stroke="#FF0000" stroke-linecap="round" stroke-miterlimit="10" d="M576.351,344.508l18.755,82.646"/>
	<path fill="none" stroke="#FF0000" stroke-linecap="round" stroke-miterlimit="10" d="M564.437,344.508
		c0-24.084,5.334-43.609,11.914-43.609s11.914,19.525,11.914,43.609c0,24.085-5.334,43.609-11.914,43.609
		S564.437,368.593,564.437,344.508z"/>
	<path fill="none" stroke="#FF0000" stroke-linecap="round" stroke-miterlimit="10" d="M627.464,344.508l10.901,74.355"/>
	<path fill="none" stroke="#FF0000" stroke-linecap="round" stroke-miterlimit="10" d="M610.343,344.508
		c0-21.261,7.665-38.497,17.121-38.497c9.455,0,17.12,17.236,17.12,38.497c0,21.262-7.665,38.497-17.12,38.497
		C618.008,383.005,610.343,365.77,610.343,344.508z"/>
	<path fill="none" stroke="#FF0000" stroke-linecap="round" stroke-miterlimit="10" d="M694.437,344.508l19.981,79.66"/>
	<path fill="none" stroke="#FF0000" stroke-linecap="round" stroke-miterlimit="10" d="M671.66,344.508
		c0-22.039,10.197-39.906,22.776-39.906s22.776,17.867,22.776,39.906s-10.197,39.906-22.776,39.906S671.66,366.547,671.66,344.508z"
		/>
	<path fill="none" stroke="#FF0000" stroke-linecap="round" stroke-miterlimit="10" d="M96,385.83l16.975,78.93"/>
	<path fill="none" stroke="#FF0000" stroke-linecap="round" stroke-miterlimit="10" d="M64.244,385.83
		c0-21.152,14.218-38.301,31.756-38.301s31.756,17.148,31.756,38.301c0,21.153-14.218,38.301-31.756,38.301
		S64.244,406.983,64.244,385.83z"/>
	<path fill="none" stroke="#FF0000" stroke-linecap="round" stroke-miterlimit="10" d="M180.066,385.83l17.334,78.893"/>
	<path fill="none" stroke="#FF0000" stroke-linecap="round" stroke-miterlimit="10" d="M148.779,385.83
		c0-22.027,14.008-39.884,31.287-39.884s31.287,17.856,31.287,39.884s-14.008,39.885-31.287,39.885S148.779,407.857,148.779,385.83z
		"/>
	<path fill="none" stroke="#FF0000" stroke-linecap="round" stroke-miterlimit="10" d="M277.199,385.83l16.809,80.171"/>
	<path fill="none" stroke="#FF0000" stroke-linecap="round" stroke-miterlimit="10" d="M252.576,385.83
		c0-20.719,11.024-37.516,24.624-37.516s24.624,16.797,24.624,37.516c0,20.72-11.024,37.516-24.624,37.516
		S252.576,406.55,252.576,385.83z"/>
	<path fill="none" stroke="#FF0000" stroke-linecap="round" stroke-miterlimit="10" d="M367.185,385.83l14.322,81.07"/>
	<path fill="none" stroke="#FF0000" stroke-linecap="round" stroke-miterlimit="10" d="M329.98,385.83
		c0-24.468,16.656-44.303,37.204-44.303c20.547,0,37.204,19.835,37.204,44.303s-16.657,44.303-37.204,44.303
		C346.637,430.133,329.98,410.298,329.98,385.83z"/>
	<path fill="none" stroke="#FF0000" stroke-linecap="round" stroke-miterlimit="10" d="M446.998,385.83l18.701,82.517"/>
	<path fill="none" stroke="#FF0000" stroke-linecap="round" stroke-miterlimit="10" d="M429.154,385.83
		c0-23.684,7.988-42.883,17.844-42.883c9.854,0,17.844,19.199,17.844,42.883s-7.989,42.883-17.844,42.883
		C437.143,428.713,429.154,409.514,429.154,385.83z"/>
	<path fill="none" stroke="#FF0000" stroke-linecap="round" stroke-miterlimit="10" d="M517.074,385.83l13.438,76.643"/>
	<path fill="none" stroke="#FF0000" stroke-linecap="round" stroke-miterlimit="10" d="M480.417,385.83
		c0-22.664,16.412-41.036,36.657-41.036s36.657,18.372,36.657,41.036s-16.412,41.036-36.657,41.036S480.417,408.494,480.417,385.83z
		"/>
	<path fill="none" stroke="#FF0000" stroke-linecap="round" stroke-miterlimit="10" d="M596.934,385.83l18.584,85.5"/>
	<path fill="none" stroke="#FF0000" stroke-linecap="round" stroke-miterlimit="10" d="M581.436,385.83
		c0-24.275,6.938-43.955,15.498-43.955s15.498,19.68,15.498,43.955s-6.938,43.955-15.498,43.955S581.436,410.105,581.436,385.83z"/>
	<path fill="none" stroke="#FF0000" stroke-linecap="round" stroke-miterlimit="10" d="M96,428.058l18.25,76.543"/>
	<path fill="none" stroke="#FF0000" stroke-linecap="round" stroke-miterlimit="10" d="M68.28,428.058
		c0-24.136,12.411-43.702,27.72-43.702s27.72,19.566,27.72,43.702S111.309,471.759,96,471.759S68.28,452.193,68.28,428.058z"/>
	<path fill="none" stroke="#FF0000" stroke-linecap="round" stroke-miterlimit="10" d="M185.94,428.058l18.449,77.824"/>
	<path fill="none" stroke="#FF0000" stroke-linecap="round" stroke-miterlimit="10" d="M158.939,428.058
		c0-20.677,12.088-37.438,27-37.438s27,16.762,27,37.438c0,20.676-12.088,37.438-27,37.438S158.939,448.733,158.939,428.058z"/>
	<path fill="none" stroke="#FF0000" stroke-linecap="round" stroke-miterlimit="10" d="M273.531,428.058l17.645,77.34"/>
	<path fill="none" stroke="#FF0000" stroke-linecap="round" stroke-miterlimit="10" d="M249.559,428.058
		c0-23.503,10.732-42.556,23.972-42.556c13.24,0,23.972,19.053,23.972,42.556c0,23.502-10.732,42.555-23.972,42.555
		C260.292,470.612,249.559,451.56,249.559,428.058z"/>
	<path fill="none" stroke="#FF0000" stroke-linecap="round" stroke-miterlimit="10" d="M367.16,428.058l12.512,74.104"/>
	<path fill="none" stroke="#FF0000" stroke-linecap="round" stroke-miterlimit="10" d="M334.707,428.058
		c0-24.075,14.53-43.591,32.453-43.591c17.924,0,32.453,19.516,32.453,43.591c0,24.074-14.529,43.591-32.453,43.591
		C349.237,471.648,334.707,452.132,334.707,428.058z"/>
	<path fill="none" stroke="#FF0000" stroke-linecap="round" stroke-miterlimit="10" d="M427.733,428.058l14.947,82.233"/>
	<path fill="none" stroke="#FF0000" stroke-linecap="round" stroke-miterlimit="10" d="M410.321,428.058
		c0-22.053,7.795-39.931,17.412-39.931c9.616,0,17.411,17.878,17.411,39.931s-7.795,39.93-17.411,39.93
		C418.116,467.987,410.321,450.11,410.321,428.058z"/>
	<path fill="none" stroke="#FF0000" stroke-linecap="round" stroke-miterlimit="10" d="M519.367,428.058l18.765,78.521"/>
	<path fill="none" stroke="#FF0000" stroke-linecap="round" stroke-miterlimit="10" d="M501.015,428.058
		c0-20.676,8.217-37.437,18.353-37.437s18.353,16.761,18.353,37.437s-8.217,37.437-18.353,37.437S501.015,448.733,501.015,428.058z"
		/>
	<path fill="none" stroke="#FF0000" stroke-linecap="round" stroke-miterlimit="10" d="M589.216,428.058l10.802,78.586"/>
	<path fill="none" stroke="#FF0000" stroke-linecap="round" stroke-miterlimit="10" d="M562.811,428.058
		c0-20.546,11.822-37.202,26.405-37.202s26.405,16.656,26.405,37.202s-11.822,37.201-26.405,37.201S562.811,448.604,562.811,428.058
		z"/>
	<path fill="none" stroke="#FF0000" stroke-linecap="round" stroke-miterlimit="10" d="M662.609,428.058l11.183,75.319"/>
	<path fill="none" stroke="#FF0000" stroke-linecap="round" stroke-miterlimit="10" d="M645.219,428.058
		c0-23.638,7.786-42.8,17.391-42.8S680,404.42,680,428.058s-7.786,42.8-17.391,42.8S645.219,451.695,645.219,428.058z"/>
	<path fill="none" stroke="#FF0000" stroke-linecap="round" stroke-miterlimit="10" d="M96,469.139l15.063,78.497"/>
	<path fill="none" stroke="#FF0000" stroke-linecap="round" stroke-miterlimit="10" d="M73.432,469.139
		c0-20.381,10.104-36.903,22.568-36.903s22.568,16.522,22.568,36.903S108.464,506.042,96,506.042S73.432,489.52,73.432,469.139z"/>
	<path fill="none" stroke="#FF0000" stroke-linecap="round" stroke-miterlimit="10" d="M188.555,469.139l18.047,77.119"/>
	<path fill="none" stroke="#FF0000" stroke-linecap="round" stroke-miterlimit="10" d="M177.664,469.139
		c0-23.379,4.876-42.331,10.891-42.331s10.891,18.952,10.891,42.331s-4.876,42.331-10.891,42.331S177.664,492.518,177.664,469.139z"
		/>
	<path fill="none" stroke="#FF0000" stroke-linecap="round" stroke-miterlimit="10" d="M246.996,469.139l18.573,86.164"/>
	<path fill="none" stroke="#FF0000" stroke-linecap="round" stroke-miterlimit="10" d="M210.532,469.139
		c0-21.965,16.325-39.771,36.464-39.771s36.464,17.806,36.464,39.771s-16.325,39.771-36.464,39.771S210.532,491.104,210.532,469.139
		z"/>
	<path fill="none" stroke="#FF0000" stroke-linecap="round" stroke-miterlimit="10" d="M297.163,469.139l13.73,78.797"/>
	<path fill="none" stroke="#FF0000" stroke-linecap="round" stroke-miterlimit="10" d="M260.511,469.139
		c0-24.156,16.409-43.738,36.651-43.738c20.242,0,36.651,19.582,36.651,43.738s-16.409,43.738-36.651,43.738
		C276.92,512.877,260.511,493.295,260.511,469.139z"/>
	<path fill="none" stroke="#FF0000" stroke-linecap="round" stroke-miterlimit="10" d="M393.907,469.139l10.967,77.191"/>
	<path fill="none" stroke="#FF0000" stroke-linecap="round" stroke-miterlimit="10" d="M377.148,469.139
		c0-24.631,7.503-44.599,16.759-44.599c9.255,0,16.758,19.968,16.758,44.599s-7.503,44.599-16.758,44.599
		C384.651,513.737,377.148,493.77,377.148,469.139z"/>
	<path fill="none" stroke="#FF0000" stroke-linecap="round" stroke-miterlimit="10" d="M479.826,469.139l17.994,86.636"/>
	<path fill="none" stroke="#FF0000" stroke-linecap="round" stroke-miterlimit="10" d="M458.509,469.139
		c0-21.78,9.544-39.437,21.317-39.437c11.772,0,21.316,17.656,21.316,39.437s-9.544,39.437-21.316,39.437
		C468.053,508.575,458.509,490.919,458.509,469.139z"/>
	<path fill="none" stroke="#FF0000" stroke-linecap="round" stroke-miterlimit="10" d="M564.232,469.139l15.251,88.367"/>
	<path fill="none" stroke="#FF0000" stroke-linecap="round" stroke-miterlimit="10" d="M524.271,469.139
		c0-23.196,17.892-42.001,39.961-42.001c22.07,0,39.961,18.805,39.961,42.001s-17.891,42.001-39.961,42.001
		C542.163,511.14,524.271,492.335,524.271,469.139z"/>
	<path fill="none" stroke="#FF0000" stroke-linecap="round" stroke-miterlimit="10" d="M662.066,469.139l18.861,80.83"/>
	<path fill="none" stroke="#FF0000" stroke-linecap="round" stroke-miterlimit="10" d="M636.822,469.139
		c0-19.871,11.303-35.979,25.244-35.979c13.942,0,25.244,16.108,25.244,35.979s-11.302,35.979-25.244,35.979
		C648.125,505.118,636.822,489.01,636.822,469.139z"/>
	<path fill="none" stroke="#FF0000" stroke-linecap="round" stroke-miterlimit="10" d="M96,519.479l16.29,87.434"/>
	<path fill="none" stroke="#FF0000" stroke-linecap="round" stroke-miterlimit="10" d="M69.255,519.479
		c0-21.971,11.974-39.782,26.745-39.782s26.745,17.812,26.745,39.782c0,21.972-11.974,39.783-26.745,39.783
		S69.255,541.45,69.255,519.479z"/>
	<path fill="none" stroke="#FF0000" stroke-linecap="round" stroke-miterlimit="10" d="M159.559,519.479l19.575,81.732"/>
	<path fill="none" stroke="#FF0000" stroke-linecap="round" stroke-miterlimit="10" d="M133.432,519.479
		c0-21.609,11.698-39.127,26.127-39.127c14.43,0,26.127,17.518,26.127,39.127s-11.697,39.127-26.127,39.127
		C145.13,558.605,133.432,541.088,133.432,519.479z"/>
	<path fill="none" stroke="#FF0000" stroke-linecap="round" stroke-miterlimit="10" d="M223.673,519.479l15.041,80.287"/>
	<path fill="none" stroke="#FF0000" stroke-linecap="round" stroke-miterlimit="10" d="M208.058,519.479
		c0-24.525,6.992-44.408,15.616-44.408c8.625,0,15.616,19.883,15.616,44.408c0,24.526-6.991,44.409-15.616,44.409
		C215.049,563.888,208.058,544.005,208.058,519.479z"/>
	<path fill="none" stroke="#FF0000" stroke-linecap="round" stroke-miterlimit="10" d="M313.369,519.479l12.613,72.178"/>
	<path fill="none" stroke="#FF0000" stroke-linecap="round" stroke-miterlimit="10" d="M282.742,519.479
		c0-24.304,13.712-44.006,30.627-44.006c16.914,0,30.626,19.702,30.626,44.006s-13.712,44.006-30.626,44.006
		C296.454,563.484,282.742,543.782,282.742,519.479z"/>
	<path fill="none" stroke="#FF0000" stroke-linecap="round" stroke-miterlimit="10" d="M411.624,519.479l14.179,85.629"/>
	<path fill="none" stroke="#FF0000" stroke-linecap="round" stroke-miterlimit="10" d="M377.464,519.479
		c0-22.596,15.294-40.914,34.16-40.914c18.865,0,34.159,18.318,34.159,40.914c0,22.597-15.294,40.915-34.159,40.915
		C392.758,560.394,377.464,542.075,377.464,519.479z"/>
	<path fill="none" stroke="#FF0000" stroke-linecap="round" stroke-miterlimit="10" d="M470.986,519.479l11.762,74.771"/>
	<path fill="none" stroke="#FF0000" stroke-linecap="round" stroke-miterlimit="10" d="M436.347,519.479
		c0-21.543,15.509-39.007,34.64-39.007s34.64,17.464,34.64,39.007c0,21.544-15.509,39.008-34.64,39.008
		S436.347,541.022,436.347,519.479z"/>
	<path fill="none" stroke="#FF0000" stroke-linecap="round" stroke-miterlimit="10" d="M524.089,519.479l18.735,82.297"/>
	<path fill="none" stroke="#FF0000" stroke-linecap="round" stroke-miterlimit="10" d="M506.713,519.479
		c0-20.132,7.779-36.452,17.376-36.452s17.376,16.32,17.376,36.452s-7.779,36.452-17.376,36.452S506.713,539.61,506.713,519.479z"/>
	<path fill="none" stroke="#FF0000" stroke-linecap="round" stroke-miterlimit="10" d="M578.868,519.479l12.249,77.316"/>
	<path fill="none" stroke="#FF0000" stroke-linecap="round" stroke-miterlimit="10" d="M546.872,519.479
		c0-22.36,14.325-40.487,31.996-40.487s31.996,18.127,31.996,40.487c0,22.361-14.325,40.488-31.996,40.488
		S546.872,541.84,546.872,519.479z"/>
	<path fill="none" stroke="#FF0000" stroke-linecap="round" stroke-miterlimit="10" d="M637.677,519.479l14.384,71.545"/>
	<path fill="none" stroke="#FF0000" stroke-linecap="round" stroke-miterlimit="10" d="M603.58,519.479
		c0-21.358,15.266-38.673,34.097-38.673s34.097,17.314,34.097,38.673s-15.266,38.673-34.097,38.673S603.58,540.837,603.58,519.479z"
		/>
	<path fill="none" stroke="#FF0000" stroke-linecap="round" stroke-miterlimit="10" d="M96,560.603l11.836,82.491"/>
	<path fill="none" stroke="#FF0000" stroke-linecap="round" stroke-miterlimit="10" d="M83.373,560.603
		c0-20.59,5.653-37.28,12.627-37.28s12.627,16.69,12.627,37.28c0,20.589-5.653,37.28-12.627,37.28S83.373,581.191,83.373,560.603z"
		/>
	<path fill="none" stroke="#FF0000" stroke-linecap="round" stroke-miterlimit="10" d="M156.846,560.603l17.79,70.907"/>
	<path fill="none" stroke="#FF0000" stroke-linecap="round" stroke-miterlimit="10" d="M120.365,560.603
		c0-20.828,16.333-37.712,36.481-37.712s36.481,16.884,36.481,37.712c0,20.827-16.333,37.712-36.481,37.712
		S120.365,581.43,120.365,560.603z"/>
	<path fill="none" stroke="#FF0000" stroke-linecap="round" stroke-miterlimit="10" d="M212.521,560.603l14.225,75.082"/>
	<path fill="none" stroke="#FF0000" stroke-linecap="round" stroke-miterlimit="10" d="M173.861,560.603
		c0-19.639,17.309-35.559,38.66-35.559c21.351,0,38.66,15.92,38.66,35.559c0,19.638-17.309,35.558-38.66,35.558
		C191.17,596.16,173.861,580.24,173.861,560.603z"/>
	<path fill="none" stroke="#FF0000" stroke-linecap="round" stroke-miterlimit="10" d="M269.607,560.603l11.917,72.865"/>
	<path fill="none" stroke="#FF0000" stroke-linecap="round" stroke-miterlimit="10" d="M255.263,560.603
		c0-21.251,6.422-38.478,14.345-38.478c7.922,0,14.344,17.227,14.344,38.478c0,21.25-6.422,38.478-14.344,38.478
		C261.685,599.08,255.263,581.853,255.263,560.603z"/>
	<path fill="none" stroke="#FF0000" stroke-linecap="round" stroke-miterlimit="10" d="M334.776,560.603l17.835,77.703"/>
	<path fill="none" stroke="#FF0000" stroke-linecap="round" stroke-miterlimit="10" d="M322.002,560.603
		c0-22.822,5.72-41.322,12.774-41.322s12.773,18.5,12.773,41.322c0,22.821-5.719,41.322-12.773,41.322
		S322.002,583.424,322.002,560.603z"/>
	<path fill="none" stroke="#FF0000" stroke-linecap="round" stroke-miterlimit="10" d="M388.64,560.603l19.607,80.393"/>
	<path fill="none" stroke="#FF0000" stroke-linecap="round" stroke-miterlimit="10" d="M371.907,560.603
		c0-20.353,7.491-36.851,16.732-36.851s16.732,16.498,16.732,36.851c0,20.352-7.491,36.851-16.732,36.851
		S371.907,580.954,371.907,560.603z"/>
	<path fill="none" stroke="#FF0000" stroke-linecap="round" stroke-miterlimit="10" d="M450.562,560.603l16.399,75.51"/>
	<path fill="none" stroke="#FF0000" stroke-linecap="round" stroke-miterlimit="10" d="M418.772,560.603
		c0-24.171,14.232-43.765,31.79-43.765c17.557,0,31.789,19.594,31.789,43.765c0,24.17-14.232,43.764-31.789,43.764
		C433.005,604.366,418.772,584.772,418.772,560.603z"/>
	<path fill="none" stroke="#FF0000" stroke-linecap="round" stroke-miterlimit="10" d="M515.577,560.603l15.435,74.895"/>
	<path fill="none" stroke="#FF0000" stroke-linecap="round" stroke-miterlimit="10" d="M488.203,560.603
		c0-24.84,12.256-44.977,27.374-44.977s27.373,20.137,27.373,44.977s-12.255,44.977-27.373,44.977S488.203,585.442,488.203,560.603z
		"/>
	<path fill="none" stroke="#FF0000" stroke-linecap="round" stroke-miterlimit="10" d="M610.047,560.603l13.508,88.977"/>
	<path fill="none" stroke="#FF0000" stroke-linecap="round" stroke-miterlimit="10" d="M578.487,560.603
		c0-24.721,14.13-44.761,31.56-44.761s31.559,20.04,31.559,44.761c0,24.72-14.129,44.76-31.559,44.76
		S578.487,585.322,578.487,560.603z"/>
	<path fill="none" stroke="#FF0000" stroke-linecap="round" stroke-miterlimit="10" d="M96,603.193l11.23,77.896"/>
	<path fill="none" stroke="#FF0000" stroke-linecap="round" stroke-miterlimit="10" d="M61.806,603.193
		c0-20.596,15.309-37.291,34.194-37.291s34.194,16.695,34.194,37.291c0,20.595-15.309,37.29-34.194,37.29
		S61.806,623.788,61.806,603.193z"/>
	<path fill="none" stroke="#FF0000" stroke-linecap="round" stroke-miterlimit="10" d="M193.942,603.193l10.774,82.845"/>
	<path fill="none" stroke="#FF0000" stroke-linecap="round" stroke-miterlimit="10" d="M169.228,603.193
		c0-24.008,11.065-43.47,24.715-43.47s24.714,19.462,24.714,43.47s-11.065,43.47-24.714,43.47S169.228,627.201,169.228,603.193z"/>
	<path fill="none" stroke="#FF0000" stroke-linecap="round" stroke-miterlimit="10" d="M259.531,603.193l14.461,83.17"/>
	<path fill="none" stroke="#FF0000" stroke-linecap="round" stroke-miterlimit="10" d="M226.883,603.193
		c0-23.303,14.617-42.192,32.648-42.192c18.031,0,32.648,18.89,32.648,42.192c0,23.302-14.617,42.191-32.648,42.191
		C241.5,645.385,226.883,626.495,226.883,603.193z"/>
	<path fill="none" stroke="#FF0000" stroke-linecap="round" stroke-miterlimit="10" d="M313.34,603.193l14.496,86.357"/>
	<path fill="none" stroke="#FF0000" stroke-linecap="round" stroke-miterlimit="10" d="M293.241,603.193
		c0-23.861,8.999-43.204,20.099-43.204c11.101,0,20.099,19.343,20.099,43.204c0,23.86-8.998,43.203-20.099,43.203
		C302.24,646.396,293.241,627.054,293.241,603.193z"/>
	<path fill="none" stroke="#FF0000" stroke-linecap="round" stroke-miterlimit="10" d="M412.389,603.193l15.756,83.498"/>
	<path fill="none" stroke="#FF0000" stroke-linecap="round" stroke-miterlimit="10" d="M392.23,603.193
		c0-21.18,9.025-38.348,20.158-38.348c11.134,0,20.159,17.168,20.159,38.348c0,21.179-9.025,38.348-20.159,38.348
		C401.256,641.541,392.23,624.372,392.23,603.193z"/>
	<path fill="none" stroke="#FF0000" stroke-linecap="round" stroke-miterlimit="10" d="M494.621,603.193l18.189,79.325"/>
	<path fill="none" stroke="#FF0000" stroke-linecap="round" stroke-miterlimit="10" d="M468.681,603.193
		c0-21.059,11.614-38.129,25.94-38.129c14.327,0,25.94,17.07,25.94,38.129c0,21.058-11.613,38.128-25.94,38.128
		C480.295,641.321,468.681,624.251,468.681,603.193z"/>
	<path fill="none" stroke="#FF0000" stroke-linecap="round" stroke-miterlimit="10" d="M571.511,603.193l11.28,78.343"/>
	<path fill="none" stroke="#FF0000" stroke-linecap="round" stroke-miterlimit="10" d="M553.33,603.193
		c0-23.354,8.14-42.286,18.181-42.286s18.181,18.932,18.181,42.286c0,23.354-8.14,42.285-18.181,42.285
		S553.33,626.547,553.33,603.193z"/>
	<path fill="none" stroke="#FF0000" stroke-linecap="round" stroke-miterlimit="10" d="M650.917,603.193l14.757,88.534"/>
	<path fill="none" stroke="#FF0000" stroke-linecap="round" stroke-miterlimit="10" d="M634.312,603.193
		c0-24.786,7.434-44.879,16.604-44.879c9.17,0,16.604,20.093,16.604,44.879c0,24.785-7.434,44.878-16.604,44.878
		C641.746,648.071,634.312,627.979,634.312,603.193z"/>
</g>
</svg>
